<svg id="svg" version="1.1" width="400" height="400" viewBox="0 0 400 400" xmlns="http://www.w3.org/2000/svg" xmlns:xlink="http://www.w3.org/1999/xlink" ><g id="svgg"><path id="path0" d="M163.600 125.157 C 163.600 127.595,163.737 128.367,164.200 128.545 C 164.577 128.689,164.800 129.301,164.800 130.187 C 164.800 131.176,164.620 131.600,164.200 131.600 C 163.800 131.600,163.600 132.000,163.600 132.800 L 163.600 134.000 159.400 134.000 C 155.933 134.000,155.200 133.895,155.200 133.400 C 155.200 132.956,154.733 132.800,153.400 132.800 C 152.067 132.800,151.600 132.956,151.600 133.400 C 151.600 133.730,151.465 134.000,151.300 134.001 C 151.135 134.001,151.060 132.831,151.134 131.401 C 151.246 129.237,151.162 128.800,150.634 128.800 C 150.285 128.800,150.000 128.530,150.000 128.200 C 150.000 127.747,149.511 127.600,148.000 127.600 L 146.000 127.600 146.000 129.751 C 146.000 131.175,145.797 132.070,145.400 132.400 C 145.070 132.674,144.800 133.506,144.800 134.249 C 144.800 135.183,144.615 135.600,144.200 135.600 C 143.870 135.600,143.600 135.870,143.600 136.200 C 143.600 136.533,143.244 136.800,142.800 136.800 C 142.356 136.800,142.000 137.067,142.000 137.400 C 142.000 137.833,141.556 138.000,140.403 138.000 C 139.240 138.000,138.671 138.217,138.307 138.800 C 138.004 139.286,137.374 139.600,136.704 139.600 C 135.989 139.600,135.600 139.812,135.600 140.200 C 135.600 140.661,135.089 140.800,133.400 140.800 C 131.711 140.800,131.200 140.661,131.200 140.200 C 131.200 139.870,130.930 139.600,130.600 139.600 C 130.114 139.600,130.000 138.956,130.000 136.200 L 130.000 132.800 127.400 132.800 L 124.800 132.800 124.800 136.800 L 124.800 140.800 123.400 140.800 C 122.422 140.800,122.000 140.981,122.000 141.400 C 122.000 141.800,121.600 142.000,120.800 142.000 C 119.867 142.000,119.600 142.178,119.600 142.800 C 119.600 143.333,119.333 143.600,118.800 143.600 C 118.356 143.600,118.000 143.867,118.000 144.200 C 118.000 144.619,117.578 144.800,116.600 144.800 C 115.622 144.800,115.200 144.619,115.200 144.200 C 115.200 143.870,114.930 143.600,114.600 143.600 C 114.150 143.600,114.000 143.119,114.000 141.670 C 114.000 138.779,110.749 136.378,110.116 138.800 C 109.968 139.367,109.570 139.600,108.753 139.600 C 107.653 139.600,107.600 139.683,107.600 141.400 C 107.600 142.733,107.756 143.200,108.200 143.200 C 108.661 143.200,108.800 143.711,108.800 145.400 L 108.800 147.600 106.700 147.600 L 104.600 147.600 104.739 145.600 L 104.877 143.600 101.681 143.600 C 99.210 143.600,98.433 143.736,98.255 144.200 C 98.099 144.608,97.459 144.800,96.255 144.800 C 95.051 144.800,94.412 144.992,94.255 145.400 C 94.093 145.823,93.432 146.000,92.013 146.000 C 90.490 146.000,90.000 145.854,90.000 145.400 C 90.000 144.942,89.498 144.800,87.880 144.800 L 85.761 144.800 85.934 143.318 C 86.029 142.503,86.353 141.590,86.653 141.290 C 86.954 140.989,87.200 140.328,87.200 139.820 C 87.200 139.313,87.470 138.674,87.800 138.400 C 88.936 137.457,88.570 135.600,87.247 135.600 C 86.430 135.600,86.032 135.367,85.884 134.800 C 85.627 133.816,84.081 133.723,83.718 134.669 C 83.577 135.038,83.132 135.668,82.731 136.069 C 82.329 136.471,82.000 137.070,82.000 137.400 C 82.000 137.730,81.814 138.000,81.587 138.000 C 81.361 138.000,81.059 138.301,80.918 138.669 C 80.118 140.755,74.573 141.855,73.200 140.200 C 72.811 139.731,71.710 139.600,68.165 139.600 C 63.976 139.600,63.594 139.536,63.182 138.766 C 62.792 138.038,62.434 137.949,60.367 138.066 L 57.999 138.200 57.999 132.900 L 58.000 127.600 55.400 127.600 L 52.800 127.600 52.800 130.800 C 52.800 133.378,52.683 134.000,52.200 134.000 C 51.747 134.000,51.600 134.489,51.600 136.000 C 51.600 137.733,51.493 138.000,50.800 138.000 C 50.267 138.000,50.000 138.267,50.000 138.800 C 50.000 139.244,49.733 139.600,49.400 139.600 C 49.070 139.600,48.800 139.870,48.800 140.200 C 48.800 140.530,48.530 140.800,48.200 140.800 C 47.870 140.800,47.597 141.025,47.593 141.300 C 47.581 142.160,45.735 143.600,44.644 143.600 C 43.983 143.600,43.600 143.820,43.600 144.200 C 43.600 144.676,43.022 144.800,40.800 144.800 L 38.000 144.800 38.000 147.400 L 38.000 150.000 41.957 150.000 C 45.106 150.000,45.961 150.123,46.145 150.600 C 46.279 150.951,46.879 151.200,47.587 151.200 C 48.410 151.200,48.800 151.397,48.800 151.813 C 48.800 152.149,49.070 152.529,49.400 152.655 C 49.730 152.782,50.000 153.136,50.000 153.443 C 50.000 153.749,50.360 154.000,50.800 154.000 C 51.244 154.000,51.600 154.267,51.600 154.600 C 51.600 154.930,51.870 155.200,52.200 155.200 C 52.530 155.200,52.800 155.451,52.800 155.757 C 52.800 156.064,53.070 156.418,53.400 156.545 C 53.799 156.698,54.000 157.327,54.000 158.425 C 54.000 159.738,54.163 160.118,54.800 160.284 C 55.552 160.481,55.600 160.830,55.600 166.047 L 55.600 171.600 54.000 171.600 C 52.854 171.600,52.400 171.432,52.400 171.008 C 52.400 170.298,50.787 169.823,49.629 170.191 C 48.904 170.421,48.800 170.775,48.800 173.027 C 48.800 175.047,48.671 175.600,48.200 175.600 C 47.800 175.600,47.600 176.000,47.600 176.800 C 47.600 177.867,47.733 178.000,48.800 178.000 C 49.600 178.000,50.000 178.200,50.000 178.600 C 50.000 179.019,50.422 179.200,51.400 179.200 L 52.800 179.200 52.800 193.200 C 52.800 205.378,52.878 207.200,53.400 207.200 C 53.819 207.200,54.000 207.622,54.000 208.600 C 54.000 209.733,54.152 210.000,54.800 210.000 C 55.586 210.000,55.600 210.267,55.600 225.400 L 55.600 240.800 54.387 240.800 C 53.679 240.800,53.079 241.049,52.945 241.400 C 52.818 241.730,52.464 242.000,52.157 242.000 C 51.851 242.000,51.600 242.360,51.600 242.800 C 51.600 244.037,46.202 244.014,45.878 242.775 C 45.695 242.076,45.399 241.970,43.931 242.075 L 42.200 242.200 42.082 245.338 C 41.931 249.384,42.483 250.000,46.261 250.000 C 48.251 250.000,48.800 250.130,48.800 250.600 C 48.800 250.930,49.051 251.200,49.357 251.200 C 49.664 251.200,50.018 251.470,50.145 251.800 C 50.271 252.130,50.651 252.400,50.987 252.400 C 51.333 252.400,51.600 252.748,51.600 253.200 C 51.600 253.644,51.867 254.000,52.200 254.000 C 52.619 254.000,52.800 254.422,52.800 255.400 C 52.800 256.378,52.619 256.800,52.200 256.800 C 51.781 256.800,51.600 257.222,51.600 258.200 C 51.600 259.125,51.412 259.600,51.047 259.600 C 50.440 259.600,50.014 260.787,50.005 262.500 C 50.001 263.424,49.829 263.600,48.931 263.600 C 48.344 263.600,47.525 263.906,47.111 264.280 C 46.649 264.698,45.827 264.925,44.980 264.868 L 43.600 264.775 43.600 267.200 C 43.600 270.012,44.202 270.558,46.100 269.469 C 46.795 269.069,48.138 268.800,49.432 268.800 L 51.600 268.800 51.600 270.613 C 51.600 271.855,51.789 272.498,52.200 272.655 C 52.647 272.827,52.800 273.539,52.800 275.443 L 52.800 278.000 54.800 278.000 L 56.800 278.000 56.800 273.971 C 56.800 270.827,56.939 269.804,57.434 269.308 C 57.883 268.860,58.029 268.116,57.934 266.770 C 57.860 265.723,57.890 264.872,58.000 264.880 C 58.948 264.949,59.174 264.571,59.305 262.700 C 59.413 261.154,59.472 261.476,59.526 263.919 L 59.600 267.238 62.100 267.119 L 64.600 267.000 64.723 264.603 C 64.803 263.034,65.045 262.095,65.423 261.883 C 65.740 261.706,66.000 261.299,66.000 260.980 C 66.000 260.661,66.270 260.400,66.600 260.400 C 66.930 260.400,67.200 260.153,67.200 259.850 C 67.200 259.548,67.740 259.192,68.400 259.060 C 69.091 258.922,69.600 258.566,69.600 258.223 C 69.600 257.854,69.832 257.714,70.203 257.857 C 70.535 257.984,71.248 257.798,71.789 257.444 C 72.330 257.090,73.048 256.800,73.386 256.800 C 73.724 256.800,74.360 256.440,74.800 256.000 C 75.240 255.560,76.056 255.200,76.613 255.200 C 77.169 255.200,77.729 254.930,77.855 254.600 C 77.984 254.265,78.578 254.000,79.200 254.000 C 79.822 254.000,80.416 253.735,80.545 253.400 C 80.671 253.070,81.247 252.800,81.825 252.800 C 82.538 252.800,82.942 252.544,83.084 252.000 C 83.253 251.352,83.630 251.200,85.059 251.200 C 86.260 251.200,86.899 251.008,87.055 250.600 C 87.195 250.235,87.801 250.000,88.600 250.000 C 89.399 250.000,90.005 250.235,90.145 250.600 C 90.271 250.930,90.651 251.200,90.987 251.200 C 91.324 251.200,91.600 251.476,91.600 251.813 C 91.600 252.149,91.870 252.529,92.200 252.655 C 92.530 252.782,92.800 253.136,92.800 253.443 C 92.800 253.749,93.070 254.000,93.400 254.000 C 93.730 254.000,94.000 254.270,94.000 254.600 C 94.000 255.001,94.401 255.200,95.213 255.200 C 95.921 255.200,96.521 254.951,96.655 254.600 C 96.782 254.270,97.123 254.000,97.414 254.000 C 98.365 254.000,99.200 252.771,99.200 251.371 C 99.200 250.467,99.011 250.000,98.643 250.000 C 98.337 250.000,97.974 249.550,97.836 249.000 C 97.698 248.450,97.408 248.000,97.192 248.000 C 96.559 248.000,96.743 246.108,97.400 245.855 C 97.730 245.729,98.000 245.169,98.000 244.613 C 98.000 243.519,99.254 242.000,100.157 242.000 C 100.464 242.000,100.818 241.730,100.945 241.400 C 101.534 239.863,102.000 241.010,102.000 244.000 C 102.000 246.933,102.067 247.200,102.800 247.200 C 103.333 247.200,103.600 247.467,103.600 248.000 C 103.600 248.622,103.867 248.800,104.800 248.800 C 105.600 248.800,106.000 249.000,106.000 249.400 C 106.000 249.819,106.422 250.000,107.400 250.000 C 108.378 250.000,108.800 250.181,108.800 250.600 C 108.800 250.933,109.156 251.200,109.600 251.200 C 110.040 251.200,110.400 251.389,110.400 251.620 C 110.400 251.852,111.018 252.299,111.773 252.614 C 112.528 252.930,113.258 253.371,113.396 253.594 C 113.534 253.817,114.337 254.000,115.181 254.000 C 116.175 254.000,116.795 254.211,116.945 254.600 C 117.135 255.095,118.190 255.200,122.987 255.200 C 127.670 255.200,128.800 255.308,128.800 255.753 C 128.800 256.551,130.092 256.788,134.467 256.795 C 136.968 256.798,138.386 256.959,138.483 257.249 C 138.566 257.497,139.346 257.814,140.216 257.955 L 141.800 258.212 141.913 262.706 L 142.026 267.200 145.413 267.200 L 148.800 267.200 148.800 262.000 C 148.800 257.706,148.902 256.800,149.384 256.800 C 149.706 256.800,150.336 256.406,150.784 255.925 L 151.600 255.049 151.600 255.925 C 151.600 256.595,151.838 256.800,152.613 256.800 C 153.169 256.800,153.729 257.070,153.855 257.400 C 153.982 257.730,154.407 258.000,154.800 258.000 C 155.193 258.000,155.618 258.270,155.745 258.600 C 156.062 259.426,157.566 259.356,157.890 258.500 C 158.036 258.115,158.390 257.562,158.678 257.271 C 159.425 256.515,159.365 254.000,158.600 254.000 C 158.270 254.000,158.000 253.730,158.000 253.400 C 158.000 253.070,157.724 252.800,157.387 252.800 C 157.051 252.800,156.671 252.530,156.545 252.200 C 156.418 251.870,156.064 251.600,155.757 251.600 C 155.451 251.600,155.200 251.345,155.200 251.033 C 155.200 250.722,155.012 250.404,154.781 250.327 C 154.260 250.153,156.837 247.200,157.510 247.200 C 157.780 247.200,158.000 246.930,158.000 246.600 C 158.000 245.879,159.594 245.780,159.613 246.500 C 159.667 248.528,164.196 249.868,164.684 248.000 C 164.832 247.433,165.230 247.200,166.047 247.200 C 166.805 247.200,167.200 246.995,167.200 246.600 C 167.200 246.124,167.778 246.000,170.000 246.000 C 172.179 246.000,172.800 246.129,172.800 246.580 C 172.800 247.069,174.243 247.163,182.000 247.184 C 189.952 247.206,191.200 247.127,191.200 246.604 C 191.200 246.087,192.265 246.000,198.600 246.000 C 204.911 246.000,206.000 245.912,206.000 245.400 C 206.000 244.555,209.817 244.545,210.141 245.389 C 210.331 245.887,211.940 245.980,220.447 245.985 C 228.873 245.990,230.637 246.090,231.195 246.596 C 231.697 247.050,232.854 247.200,235.851 247.200 C 240.486 247.200,240.800 247.384,240.800 250.093 C 240.800 251.441,240.981 252.095,241.400 252.255 C 241.770 252.397,242.000 253.005,242.000 253.843 L 242.000 255.200 243.971 255.200 C 246.757 255.200,248.257 253.375,246.600 252.000 C 246.261 251.718,246.000 250.846,246.000 249.994 C 246.000 249.022,246.213 248.404,246.600 248.255 C 246.987 248.107,247.200 247.488,247.200 246.509 C 247.200 245.426,247.429 244.850,248.000 244.493 C 248.440 244.218,248.800 243.564,248.800 243.039 C 248.800 242.515,249.070 241.982,249.400 241.855 C 249.751 241.721,250.000 241.121,250.000 240.413 C 250.000 239.601,250.199 239.200,250.600 239.200 C 250.989 239.200,251.200 238.810,251.200 238.089 C 251.200 237.473,251.556 236.673,252.000 236.293 C 252.440 235.916,252.800 235.265,252.800 234.847 C 252.800 234.428,253.070 233.982,253.400 233.855 C 253.811 233.698,254.000 233.055,254.000 231.813 C 254.000 230.410,254.146 230.000,254.647 230.000 C 255.066 230.000,255.229 229.754,255.110 229.300 C 254.941 228.653,255.449 228.600,261.763 228.600 L 268.600 228.600 268.719 226.100 C 268.834 223.697,268.801 223.600,267.881 223.600 C 267.355 223.600,266.598 223.240,266.200 222.800 C 265.548 222.079,264.968 222.000,260.338 222.000 L 255.200 222.000 255.200 218.047 C 255.200 214.430,255.268 214.076,256.000 213.884 C 256.479 213.759,256.800 213.338,256.800 212.837 C 256.800 212.377,256.977 212.000,257.192 212.000 C 257.408 212.000,257.698 211.550,257.836 211.000 C 257.974 210.450,258.337 210.000,258.643 210.000 C 258.995 210.000,259.200 209.558,259.200 208.800 C 259.200 208.000,259.000 207.600,258.600 207.600 C 258.267 207.600,258.000 207.244,258.000 206.800 C 258.000 206.116,257.733 206.000,256.163 206.000 C 254.662 206.000,254.287 206.146,254.116 206.800 C 254.001 207.240,253.658 207.600,253.353 207.600 C 253.049 207.600,252.800 207.870,252.800 208.200 C 252.800 208.530,252.530 208.800,252.200 208.800 C 251.870 208.800,251.600 209.049,251.600 209.353 C 251.600 209.658,251.240 210.001,250.800 210.116 C 250.360 210.231,250.000 210.612,250.000 210.963 C 250.000 211.493,249.461 211.600,246.800 211.600 C 244.222 211.600,243.600 211.717,243.600 212.200 C 243.600 212.533,243.244 212.800,242.800 212.800 C 242.356 212.800,242.000 213.067,242.000 213.400 C 242.000 213.730,241.730 214.000,241.400 214.000 C 240.969 214.000,240.800 214.440,240.800 215.557 C 240.800 216.572,240.591 217.195,240.200 217.345 C 239.767 217.511,239.600 218.190,239.600 219.787 C 239.600 221.733,239.504 222.000,238.800 222.000 C 238.267 222.000,238.000 222.267,238.000 222.800 C 238.000 223.244,237.733 223.600,237.400 223.600 C 237.070 223.600,236.800 223.870,236.800 224.200 C 236.800 224.530,236.530 224.800,236.200 224.800 C 235.781 224.800,235.600 225.222,235.600 226.200 C 235.600 227.333,235.448 227.600,234.800 227.600 C 234.356 227.600,234.000 227.867,234.000 228.200 C 234.000 228.818,231.328 228.940,220.896 228.802 C 217.881 228.762,217.149 228.869,216.954 229.376 C 216.772 229.851,216.104 230.000,214.157 230.000 C 211.867 230.000,211.600 230.083,211.600 230.800 C 211.600 231.448,211.333 231.600,210.200 231.600 C 209.333 231.600,208.495 231.295,208.000 230.800 C 207.363 230.163,206.667 230.000,204.583 230.000 C 200.878 230.000,200.334 229.428,200.666 225.878 C 200.840 224.014,201.081 223.200,201.458 223.200 C 201.756 223.200,202.000 222.942,202.000 222.627 C 202.000 222.298,202.470 221.999,203.100 221.927 C 203.949 221.829,204.287 221.503,204.583 220.500 C 204.793 219.785,205.198 219.200,205.483 219.200 C 205.829 219.200,206.000 218.605,206.000 217.400 C 206.000 214.747,207.925 213.063,209.200 214.600 C 209.474 214.930,210.105 215.200,210.602 215.200 C 211.170 215.200,211.585 215.498,211.716 216.000 C 211.845 216.492,212.262 216.800,212.800 216.800 C 213.338 216.800,213.755 216.492,213.884 216.000 C 213.999 215.560,214.342 215.200,214.647 215.200 C 215.036 215.200,215.200 214.666,215.200 213.400 C 215.200 212.067,215.044 211.600,214.600 211.600 C 214.267 211.600,214.000 211.244,214.000 210.800 C 214.000 210.356,213.733 210.000,213.400 210.000 C 213.070 210.000,212.800 209.730,212.800 209.400 C 212.800 209.067,212.444 208.800,212.000 208.800 C 211.358 208.800,211.200 208.533,211.200 207.447 C 211.200 206.430,211.399 206.041,212.000 205.884 C 212.583 205.732,212.800 205.338,212.800 204.437 C 212.800 203.604,212.996 203.200,213.400 203.200 C 213.730 203.200,214.000 202.930,214.000 202.600 C 214.000 202.270,214.270 202.000,214.600 202.000 C 215.019 202.000,215.200 201.578,215.200 200.600 C 215.200 199.467,215.352 199.200,216.000 199.200 C 216.444 199.200,216.800 198.933,216.800 198.600 C 216.800 198.270,217.070 198.000,217.400 198.000 C 217.730 198.000,218.000 197.730,218.000 197.400 C 218.000 197.070,218.270 196.800,218.600 196.800 C 218.933 196.800,219.200 196.444,219.200 196.000 C 219.200 195.467,219.467 195.200,220.000 195.200 C 220.533 195.200,220.800 195.467,220.800 196.000 C 220.800 196.518,221.067 196.800,221.557 196.800 C 221.974 196.800,222.418 197.070,222.545 197.400 C 222.860 198.222,227.200 198.266,227.200 197.447 C 227.200 197.142,227.560 196.799,228.000 196.684 C 228.550 196.540,228.800 196.138,228.800 195.400 C 228.800 194.662,228.550 194.260,228.000 194.116 C 227.560 194.001,227.200 193.658,227.200 193.353 C 227.200 193.049,226.930 192.800,226.600 192.800 C 226.270 192.800,226.000 192.530,226.000 192.200 C 226.000 191.870,225.730 191.600,225.400 191.600 C 224.941 191.600,224.800 191.094,224.800 189.443 C 224.800 187.894,224.969 187.221,225.400 187.055 C 225.744 186.923,226.000 186.326,226.000 185.655 C 226.000 184.985,226.256 184.387,226.600 184.255 C 226.930 184.129,227.200 183.569,227.200 183.013 C 227.200 182.122,227.369 182.000,228.600 182.000 C 229.578 182.000,230.000 182.181,230.000 182.600 C 230.000 182.930,230.339 183.200,230.753 183.200 C 231.170 183.200,231.600 183.557,231.716 184.000 C 232.073 185.367,235.200 184.970,235.200 183.557 C 235.200 183.141,235.358 182.800,235.551 182.800 C 236.056 182.800,236.927 180.528,236.615 180.024 C 236.471 179.791,236.093 179.600,235.776 179.600 C 235.459 179.600,235.200 179.422,235.200 179.203 C 235.200 178.985,234.660 178.291,234.000 177.660 C 232.717 176.434,232.416 175.200,233.400 175.200 C 233.795 175.200,234.000 174.805,234.000 174.043 C 234.000 173.383,234.258 172.787,234.600 172.655 C 234.943 172.524,235.200 171.927,235.200 171.259 C 235.200 170.430,235.431 170.033,236.000 169.884 C 236.583 169.732,236.800 169.338,236.800 168.437 C 236.800 167.604,236.996 167.200,237.400 167.200 C 237.800 167.200,238.000 166.800,238.000 166.000 C 238.000 165.200,238.200 164.800,238.600 164.800 C 239.015 164.800,239.200 164.383,239.200 163.447 C 239.200 162.430,239.399 162.041,240.000 161.884 C 240.583 161.732,240.800 161.338,240.800 160.437 C 240.800 159.604,240.996 159.200,241.400 159.200 C 241.795 159.200,242.000 158.805,242.000 158.043 C 242.000 157.383,242.258 156.787,242.600 156.655 C 242.930 156.529,243.200 155.969,243.200 155.413 C 243.200 154.856,243.560 154.040,244.000 153.600 C 244.582 153.018,244.800 152.267,244.800 150.843 C 244.800 149.472,244.980 148.817,245.400 148.655 C 245.751 148.521,246.000 147.921,246.000 147.213 C 246.000 146.429,246.202 146.000,246.571 146.000 C 246.885 146.000,247.224 145.685,247.324 145.300 C 247.498 144.633,247.509 144.633,247.554 145.300 C 247.579 145.685,247.870 146.000,248.200 146.000 C 248.530 146.000,248.800 146.270,248.800 146.600 C 248.800 146.930,249.070 147.200,249.400 147.200 C 249.816 147.200,250.000 147.619,250.000 148.567 C 250.000 150.329,250.345 151.200,251.043 151.200 C 251.462 151.200,251.600 151.844,251.600 153.800 C 251.600 155.844,251.728 156.400,252.200 156.400 C 252.619 156.400,252.800 156.822,252.800 157.800 C 252.800 158.725,252.988 159.200,253.353 159.200 C 253.658 159.200,254.001 159.560,254.116 160.000 C 254.231 160.440,254.612 160.800,254.963 160.800 C 255.313 160.800,255.600 161.070,255.600 161.400 C 255.600 161.730,255.870 162.000,256.200 162.000 C 256.530 162.000,256.800 162.270,256.800 162.600 C 256.800 162.930,257.070 163.200,257.400 163.200 C 257.733 163.200,258.000 163.556,258.000 164.000 C 258.000 164.533,258.267 164.800,258.800 164.800 C 259.244 164.800,259.600 165.067,259.600 165.400 C 259.600 165.730,259.870 166.000,260.200 166.000 C 260.530 166.000,260.800 166.270,260.800 166.600 C 260.800 166.930,261.049 167.200,261.353 167.200 C 261.658 167.200,262.001 167.560,262.116 168.000 C 262.231 168.440,262.612 168.800,262.963 168.800 C 263.313 168.800,263.600 169.070,263.600 169.400 C 263.600 169.730,263.870 170.000,264.200 170.000 C 264.601 170.000,264.800 170.401,264.800 171.213 C 264.800 171.921,265.049 172.521,265.400 172.655 C 266.465 173.064,266.080 174.000,264.847 174.000 C 264.030 174.000,263.632 174.233,263.484 174.800 C 263.318 175.437,262.938 175.600,261.625 175.600 C 260.527 175.600,259.898 175.801,259.745 176.200 C 259.603 176.570,258.995 176.800,258.157 176.800 C 257.092 176.800,256.800 176.963,256.800 177.557 C 256.800 177.974,256.530 178.418,256.200 178.545 C 255.870 178.671,255.600 179.056,255.600 179.400 C 255.600 179.744,255.870 180.129,256.200 180.255 C 256.530 180.382,256.800 180.966,256.800 181.554 C 256.800 183.604,259.915 185.441,260.557 183.769 C 260.701 183.393,261.389 183.200,262.587 183.200 C 263.932 183.200,264.400 183.045,264.400 182.600 C 264.400 182.185,264.817 182.000,265.751 182.000 C 266.494 182.000,267.326 181.730,267.600 181.400 C 268.338 180.511,268.800 180.670,268.800 181.813 C 268.800 182.369,269.070 182.929,269.400 183.055 C 269.831 183.221,270.000 183.894,270.000 185.443 C 270.000 187.094,269.859 187.600,269.400 187.600 C 269.070 187.600,268.800 187.870,268.800 188.200 C 268.800 188.530,268.530 188.800,268.200 188.800 C 267.870 188.800,267.600 189.059,267.600 189.375 C 267.600 189.731,267.105 189.997,266.300 190.075 C 264.783 190.221,264.078 192.964,265.372 193.688 C 265.717 193.882,266.000 194.301,266.000 194.620 C 266.000 195.067,266.595 195.200,268.600 195.200 C 270.644 195.200,271.200 195.072,271.200 194.600 C 271.200 194.181,271.622 194.000,272.600 194.000 C 273.578 194.000,274.000 194.181,274.000 194.600 C 274.000 194.933,274.356 195.200,274.800 195.200 C 275.240 195.200,275.600 195.451,275.600 195.757 C 275.600 196.064,275.870 196.418,276.200 196.545 C 276.664 196.723,276.800 197.501,276.800 199.987 C 276.800 202.576,276.916 203.200,277.400 203.200 C 277.873 203.200,278.000 203.760,278.000 205.837 C 278.000 208.138,278.102 208.502,278.800 208.684 C 279.486 208.864,279.600 209.230,279.600 211.259 C 279.600 212.993,279.760 213.687,280.200 213.855 C 280.618 214.016,280.800 214.667,280.800 216.000 C 280.800 217.333,280.982 217.984,281.400 218.145 C 281.881 218.329,282.000 219.210,282.000 222.573 C 282.000 226.362,282.078 226.814,282.800 227.200 C 283.463 227.555,283.600 228.038,283.600 230.014 C 283.600 231.868,283.734 232.400,284.200 232.400 C 284.708 232.400,284.800 233.356,284.800 238.600 L 284.800 244.800 283.432 244.800 C 282.237 244.800,282.030 244.648,281.800 243.600 C 281.655 242.940,281.391 242.400,281.213 242.400 C 281.035 242.400,280.771 241.770,280.626 241.000 C 280.469 240.162,280.130 239.600,279.782 239.600 C 279.462 239.600,279.200 239.240,279.200 238.800 C 279.200 238.130,278.933 238.000,277.563 238.000 C 276.262 238.000,275.882 238.164,275.716 238.800 C 275.600 239.243,275.170 239.600,274.753 239.600 C 273.708 239.600,273.718 241.757,274.767 242.492 C 275.346 242.898,275.551 243.564,275.601 245.215 C 275.735 249.575,275.664 250.000,274.800 250.000 C 274.284 250.000,274.000 250.267,274.000 250.751 C 274.000 251.164,273.730 251.726,273.400 252.000 C 273.070 252.274,272.800 252.836,272.800 253.249 C 272.800 253.662,272.530 254.000,272.200 254.000 C 271.867 254.000,271.600 254.356,271.600 254.800 C 271.600 255.333,271.333 255.600,270.800 255.600 C 270.356 255.600,270.000 255.867,270.000 256.200 C 270.000 256.570,269.624 256.800,269.020 256.800 C 268.481 256.800,267.896 257.057,267.720 257.372 C 267.536 257.700,266.631 257.999,265.600 258.072 L 263.800 258.200 263.677 260.131 C 263.490 263.058,263.749 263.200,269.249 263.200 C 273.043 263.200,274.000 263.312,274.000 263.757 C 274.000 264.394,274.849 264.800,276.184 264.800 C 276.689 264.800,277.326 265.070,277.600 265.400 C 277.874 265.730,278.684 266.000,279.400 266.000 C 280.116 266.000,280.926 266.270,281.200 266.600 C 281.620 267.106,283.360 267.200,292.262 267.200 C 301.282 267.200,302.859 267.112,303.055 266.600 C 303.235 266.133,304.028 266.000,306.643 266.000 C 309.360 266.000,310.000 266.114,310.000 266.600 C 310.000 266.933,310.356 267.200,310.800 267.200 C 311.333 267.200,311.600 267.467,311.600 268.000 C 311.600 268.444,311.867 268.800,312.200 268.800 C 312.530 268.800,312.800 269.070,312.800 269.400 C 312.800 269.730,313.070 270.000,313.400 270.000 C 313.730 270.000,314.000 270.270,314.000 270.600 C 314.000 270.933,314.356 271.200,314.800 271.200 C 315.333 271.200,315.600 271.467,315.600 272.000 C 315.600 272.444,315.867 272.800,316.200 272.800 C 316.530 272.800,316.800 273.070,316.800 273.400 C 316.800 273.730,317.070 274.000,317.400 274.000 C 317.730 274.000,318.000 274.270,318.000 274.600 C 318.000 275.017,318.419 275.200,319.371 275.200 C 320.795 275.200,322.000 274.361,322.000 273.371 C 322.000 273.057,322.270 272.800,322.600 272.800 C 323.053 272.800,323.200 272.311,323.200 270.800 C 323.200 269.289,323.053 268.800,322.600 268.800 C 322.270 268.800,322.000 268.530,322.000 268.200 C 322.000 267.870,321.751 267.600,321.447 267.600 C 321.142 267.600,320.799 267.240,320.684 266.800 C 320.569 266.360,320.188 266.000,319.837 266.000 C 319.487 266.000,319.200 265.730,319.200 265.400 C 319.200 265.070,318.930 264.800,318.600 264.800 C 318.270 264.800,318.000 264.530,318.000 264.200 C 318.000 263.870,317.730 263.600,317.400 263.600 C 317.067 263.600,316.800 263.244,316.800 262.800 C 316.800 262.267,316.533 262.000,316.000 262.000 C 315.354 262.000,315.200 261.733,315.200 260.618 L 315.200 259.237 317.900 259.118 L 320.600 259.000 320.600 256.600 L 320.600 254.200 317.900 254.082 C 315.859 253.992,315.200 253.822,315.200 253.382 C 315.200 253.062,314.930 252.800,314.600 252.800 C 314.147 252.800,314.000 252.311,314.000 250.800 C 314.000 249.339,313.847 248.800,313.432 248.800 C 313.119 248.800,312.742 248.248,312.594 247.573 C 312.446 246.898,312.072 246.249,311.762 246.130 C 311.453 246.012,311.200 245.664,311.200 245.357 C 311.200 245.051,310.930 244.800,310.600 244.800 C 310.270 244.800,310.000 244.530,310.000 244.200 C 310.000 243.870,309.751 243.600,309.447 243.600 C 309.142 243.600,308.799 243.240,308.684 242.800 C 308.569 242.360,308.188 242.000,307.837 242.000 C 307.487 242.000,307.200 241.730,307.200 241.400 C 307.200 241.070,306.930 240.800,306.600 240.800 C 306.076 240.800,306.000 238.538,306.000 222.843 C 306.000 207.250,306.079 204.855,306.600 204.655 C 307.047 204.484,307.200 203.771,307.200 201.859 C 307.200 199.630,307.305 199.266,308.000 199.084 C 308.541 198.943,308.800 198.538,308.800 197.837 C 308.800 196.918,308.960 196.800,310.200 196.800 C 311.178 196.800,311.600 196.981,311.600 197.400 C 311.600 197.872,312.156 198.000,314.200 198.000 C 316.156 198.000,316.800 197.862,316.800 197.443 C 316.800 197.136,317.080 196.778,317.423 196.646 C 318.767 196.131,318.006 193.020,316.500 192.875 C 315.695 192.797,315.200 192.531,315.200 192.175 C 315.200 191.859,314.951 191.600,314.647 191.600 C 314.342 191.600,314.009 191.278,313.906 190.885 C 313.672 189.990,314.236 188.400,314.787 188.400 C 315.014 188.400,315.200 187.860,315.200 187.200 C 315.200 186.267,315.378 186.000,316.000 186.000 C 316.440 186.000,316.800 185.749,316.800 185.443 C 316.800 185.136,317.070 184.782,317.400 184.655 C 317.730 184.529,318.000 184.149,318.000 183.813 C 318.000 183.476,318.270 183.200,318.600 183.200 C 318.930 183.200,319.200 182.922,319.200 182.583 C 319.200 182.244,319.560 181.580,320.000 181.108 C 320.440 180.636,320.800 180.013,320.800 179.725 C 320.800 179.436,321.070 179.200,321.400 179.200 C 321.730 179.200,322.000 178.930,322.000 178.600 C 322.000 178.270,322.270 178.000,322.600 178.000 C 322.930 178.000,323.200 177.730,323.200 177.400 C 323.200 177.070,323.560 176.440,324.000 176.000 C 324.440 175.560,324.800 174.930,324.800 174.600 C 324.800 174.270,324.980 174.000,325.200 174.000 C 325.721 174.000,326.990 172.724,327.318 171.869 C 327.459 171.501,327.851 171.200,328.187 171.200 C 328.524 171.200,328.800 170.930,328.800 170.600 C 328.800 170.270,329.070 170.000,329.400 170.000 C 329.730 170.000,330.000 169.659,330.000 169.243 C 330.000 168.826,330.283 168.377,330.629 168.244 C 330.980 168.110,331.225 167.605,331.185 167.101 C 331.036 165.268,331.202 164.800,332.000 164.800 C 332.444 164.800,332.800 165.067,332.800 165.400 C 332.800 165.730,333.048 166.000,333.350 166.000 C 333.653 166.000,334.006 166.531,334.136 167.179 C 334.525 169.123,339.200 169.335,339.200 167.409 C 339.200 167.074,339.380 166.800,339.600 166.800 C 339.820 166.800,340.000 166.440,340.000 166.000 C 340.000 165.560,339.820 165.200,339.600 165.200 C 339.380 165.200,339.200 164.480,339.200 163.600 C 339.200 162.444,339.033 162.000,338.600 162.000 C 338.267 162.000,338.000 161.644,338.000 161.200 C 338.000 160.756,338.267 160.400,338.600 160.400 C 338.930 160.400,339.200 160.220,339.200 160.000 C 339.200 159.387,340.725 158.000,341.400 158.000 C 341.730 158.000,342.000 158.270,342.000 158.600 C 342.000 158.933,342.356 159.200,342.800 159.200 C 343.333 159.200,343.600 159.467,343.600 160.000 C 343.600 160.565,343.865 160.798,344.500 160.795 C 346.130 160.785,347.200 160.318,347.200 159.615 C 347.200 159.235,347.560 158.598,348.000 158.200 C 349.073 157.229,349.073 155.600,348.000 155.600 C 347.467 155.600,347.200 155.333,347.200 154.800 C 347.200 154.356,346.933 154.000,346.600 154.000 C 346.270 154.000,346.000 153.745,346.000 153.433 C 346.000 153.122,345.775 152.776,345.500 152.665 C 345.100 152.504,345.100 152.457,345.500 152.432 C 345.775 152.414,346.000 151.944,346.000 151.387 C 346.000 150.831,346.280 150.267,346.623 150.136 C 346.966 150.004,347.151 149.650,347.036 149.348 C 346.899 148.993,347.116 148.800,347.650 148.800 C 348.138 148.800,348.560 148.474,348.684 148.000 C 348.799 147.560,349.142 147.200,349.447 147.200 C 349.751 147.200,350.000 146.930,350.000 146.600 C 350.000 146.267,350.356 146.000,350.800 146.000 C 351.244 146.000,351.600 146.267,351.600 146.600 C 351.600 147.051,352.084 147.200,353.553 147.200 C 355.170 147.200,355.543 147.338,355.716 148.000 C 355.894 148.682,356.262 148.800,358.200 148.800 C 360.138 148.800,360.506 148.682,360.684 148.000 C 360.799 147.560,361.142 147.200,361.447 147.200 C 361.836 147.200,362.000 146.666,362.000 145.400 C 362.000 143.867,361.881 143.600,361.200 143.600 C 360.760 143.600,360.400 143.349,360.400 143.043 C 360.400 142.345,359.529 142.000,357.767 142.000 C 356.819 142.000,356.400 141.816,356.400 141.400 C 356.400 140.956,355.933 140.800,354.600 140.800 C 353.267 140.800,352.800 140.644,352.800 140.200 C 352.800 139.867,352.444 139.600,352.000 139.600 C 350.797 139.600,350.797 135.399,352.000 135.084 C 352.901 134.848,353.103 132.850,352.410 131.026 C 351.888 129.654,348.800 129.460,348.800 130.800 C 348.800 131.244,348.533 131.600,348.200 131.600 C 347.800 131.600,347.600 132.000,347.600 132.800 C 347.600 133.467,347.244 134.356,346.800 134.800 C 346.356 135.244,346.000 136.133,346.000 136.800 C 346.000 137.600,345.800 138.000,345.400 138.000 C 345.067 138.000,344.800 138.356,344.800 138.800 C 344.800 139.244,344.533 139.600,344.200 139.600 C 343.870 139.600,343.600 139.870,343.600 140.200 C 343.600 140.533,343.244 140.800,342.800 140.800 C 342.356 140.800,342.000 141.067,342.000 141.400 C 342.000 141.898,341.226 142.000,337.433 142.000 C 332.540 142.000,331.600 142.168,331.600 143.043 C 331.600 143.457,330.983 143.600,329.187 143.600 C 327.412 143.600,326.714 143.758,326.545 144.200 C 326.418 144.530,326.008 144.800,325.634 144.800 C 325.259 144.800,324.604 145.064,324.176 145.387 C 323.012 146.268,308.400 146.280,308.400 145.400 C 308.400 145.070,308.130 144.800,307.800 144.800 C 307.470 144.800,307.200 144.530,307.200 144.200 C 307.200 143.870,306.930 143.600,306.600 143.600 C 306.267 143.600,306.000 143.244,306.000 142.800 C 306.000 142.356,305.733 142.000,305.400 142.000 C 305.070 142.000,304.800 141.747,304.800 141.438 C 304.800 141.033,304.243 140.872,302.800 140.861 C 301.390 140.850,300.800 141.004,300.800 141.380 C 300.800 141.674,300.530 142.018,300.200 142.145 C 299.870 142.271,299.600 142.831,299.600 143.387 C 299.600 144.021,299.825 144.400,300.200 144.400 C 300.598 144.400,300.800 144.798,300.800 145.580 C 300.800 146.282,301.084 146.925,301.500 147.168 C 302.167 147.556,302.167 147.576,301.500 147.588 C 300.941 147.598,300.800 147.956,300.800 149.371 C 300.800 150.721,300.966 151.185,301.500 151.324 C 301.885 151.425,301.615 151.528,300.900 151.554 C 300.032 151.585,299.600 151.799,299.600 152.200 C 299.600 152.619,299.178 152.800,298.200 152.800 C 297.222 152.800,296.800 152.981,296.800 153.400 C 296.800 153.730,296.530 154.000,296.200 154.000 C 295.747 154.000,295.600 154.489,295.600 156.000 L 295.600 158.000 298.013 158.000 C 299.788 158.000,300.486 157.842,300.655 157.400 C 300.817 156.980,301.472 156.800,302.843 156.800 L 304.800 156.800 304.800 159.167 C 304.800 160.578,304.617 161.594,304.346 161.685 C 304.017 161.794,304.009 162.054,304.316 162.618 C 304.550 163.048,304.839 163.715,304.958 164.100 C 305.123 164.632,305.610 164.800,306.987 164.800 C 308.332 164.800,308.800 164.955,308.800 165.400 C 308.800 165.730,309.070 166.000,309.400 166.000 C 309.815 166.000,310.000 166.417,310.000 167.351 C 310.000 168.094,309.730 168.926,309.400 169.200 C 308.670 169.806,308.620 170.667,309.300 170.917 C 309.575 171.019,309.305 171.233,308.700 171.394 C 307.821 171.628,307.600 171.919,307.600 172.843 C 307.600 173.733,307.416 174.000,306.800 174.000 C 306.267 174.000,306.000 174.267,306.000 174.800 C 306.000 175.244,305.733 175.600,305.400 175.600 C 305.000 175.600,304.800 176.000,304.800 176.800 C 304.800 177.600,304.600 178.000,304.200 178.000 C 303.867 178.000,303.600 178.356,303.600 178.800 C 303.600 179.333,303.333 179.600,302.800 179.600 C 302.356 179.600,302.000 179.867,302.000 180.200 C 302.000 180.530,301.730 180.800,301.400 180.800 C 301.070 180.800,300.800 181.070,300.800 181.400 C 300.800 181.733,300.444 182.000,300.000 182.000 C 299.307 182.000,299.200 181.733,299.200 180.000 C 299.200 178.471,299.344 178.000,299.813 178.000 C 300.149 178.000,300.529 177.730,300.655 177.400 C 300.782 177.070,301.136 176.800,301.443 176.800 C 301.749 176.800,302.000 176.440,302.000 176.000 C 302.000 175.556,302.267 175.200,302.600 175.200 C 303.000 175.200,303.200 174.800,303.200 174.000 C 303.200 173.224,302.997 172.800,302.625 172.800 C 302.269 172.800,302.003 172.305,301.925 171.500 C 301.765 169.838,298.529 169.221,298.122 170.775 C 298.004 171.229,297.658 171.600,297.353 171.600 C 297.049 171.600,296.800 171.870,296.800 172.200 C 296.800 172.615,296.383 172.800,295.443 172.800 C 294.605 172.800,293.997 172.570,293.855 172.200 C 293.729 171.870,293.439 171.600,293.213 171.600 C 292.986 171.600,292.440 171.240,292.000 170.800 C 291.560 170.360,290.930 170.000,290.600 170.000 C 290.270 170.000,290.000 169.730,290.000 169.400 C 290.000 169.070,289.730 168.800,289.400 168.800 C 289.070 168.800,288.800 168.530,288.800 168.200 C 288.800 167.867,288.444 167.600,288.000 167.600 C 287.467 167.600,287.200 167.333,287.200 166.800 C 287.200 166.356,286.933 166.000,286.600 166.000 C 286.270 166.000,286.000 165.730,286.000 165.400 C 286.000 165.070,285.730 164.800,285.400 164.800 C 284.888 164.800,284.800 163.711,284.800 157.400 C 284.800 151.089,284.888 150.000,285.400 150.000 C 285.819 150.000,286.000 149.578,286.000 148.600 C 286.000 147.622,286.181 147.200,286.600 147.200 C 286.930 147.200,287.200 146.930,287.200 146.600 C 287.200 146.181,287.622 146.000,288.600 146.000 C 289.550 146.000,290.000 145.815,290.000 145.425 C 290.000 145.069,290.495 144.803,291.300 144.725 L 292.600 144.600 292.600 141.733 C 292.600 137.976,293.255 138.217,282.680 138.078 C 272.895 137.950,271.600 138.059,271.600 139.008 C 271.600 139.493,270.843 139.600,267.400 139.600 C 264.077 139.600,263.200 139.484,263.200 139.043 C 263.200 138.289,262.309 138.000,259.987 138.000 C 258.597 138.000,257.935 137.812,257.672 137.343 C 257.423 136.897,256.968 136.751,256.252 136.888 C 255.263 137.077,255.200 136.997,255.200 135.545 C 255.200 134.267,255.338 134.000,256.000 134.000 C 256.490 134.000,256.805 133.729,256.813 133.300 C 256.820 132.915,257.090 132.251,257.413 131.824 C 258.290 130.663,258.186 128.800,257.243 128.800 C 256.826 128.800,256.378 128.519,256.246 128.176 C 255.807 127.033,253.000 127.573,253.000 128.800 C 253.000 129.376,252.703 129.922,252.300 130.087 C 251.915 130.245,251.600 130.638,251.600 130.959 C 251.600 131.613,250.450 131.872,248.500 131.656 C 247.542 131.550,247.200 131.313,247.200 130.756 C 247.200 130.340,246.930 130.000,246.600 130.000 C 246.270 130.000,246.000 129.730,246.000 129.400 C 246.000 128.507,243.712 128.598,243.476 129.500 C 243.375 129.885,243.272 129.441,243.246 128.514 C 243.191 126.487,242.377 125.897,239.885 126.078 L 238.200 126.200 238.082 128.900 C 237.992 130.941,237.822 131.600,237.382 131.600 C 237.062 131.600,236.800 131.780,236.800 132.000 C 236.800 132.816,235.162 134.000,234.033 134.000 C 232.462 134.000,231.600 134.369,231.600 135.043 C 231.600 135.475,230.847 135.600,228.249 135.600 C 225.758 135.600,224.770 135.754,224.400 136.200 C 224.126 136.530,223.399 136.800,222.784 136.800 C 222.170 136.800,221.576 137.025,221.465 137.300 C 221.304 137.700,221.257 137.700,221.232 137.300 C 221.187 136.601,219.402 136.674,218.800 137.400 C 218.451 137.820,217.526 138.000,215.714 138.000 C 213.462 138.000,213.098 138.104,212.916 138.800 C 212.725 139.531,212.370 139.600,208.800 139.600 C 205.230 139.600,204.875 139.531,204.684 138.800 C 204.534 138.225,204.138 138.000,203.281 138.000 C 202.341 138.000,202.033 137.787,201.836 137.000 C 201.698 136.450,201.408 136.000,201.192 136.000 C 200.977 136.000,200.800 134.998,200.800 133.774 C 200.800 130.108,200.761 130.082,195.199 130.027 C 189.932 129.975,188.800 130.291,188.800 131.814 C 188.800 132.424,188.571 132.800,188.200 132.800 C 187.870 132.800,187.600 133.070,187.600 133.400 C 187.600 133.889,186.933 134.000,184.000 134.000 C 181.067 134.000,180.400 133.889,180.400 133.400 C 180.400 132.917,179.778 132.800,177.200 132.800 C 174.622 132.800,174.000 132.683,174.000 132.200 C 174.000 131.870,173.751 131.600,173.447 131.600 C 173.142 131.600,172.799 131.240,172.684 130.800 C 172.569 130.360,172.188 130.000,171.837 130.000 C 171.487 130.000,171.200 129.730,171.200 129.400 C 171.200 129.070,170.930 128.800,170.600 128.800 C 170.170 128.800,170.000 128.361,170.000 127.249 C 170.000 126.358,169.745 125.486,169.400 125.200 C 169.070 124.926,168.800 124.379,168.800 123.984 C 168.800 122.285,168.392 122.000,165.957 122.000 L 163.600 122.000 163.600 125.157 M170.000 134.647 C 170.000 134.951,170.339 135.200,170.753 135.200 C 171.170 135.200,171.600 135.557,171.716 136.000 C 171.904 136.718,172.262 136.800,175.191 136.800 C 177.561 136.800,178.622 136.965,179.057 137.400 C 179.520 137.863,180.696 138.000,184.207 138.000 L 188.756 138.000 188.878 139.900 L 189.000 141.800 191.419 141.917 C 193.868 142.035,193.900 142.023,196.300 139.992 C 196.575 139.759,196.800 139.194,196.800 138.735 C 196.800 137.695,197.989 138.491,198.017 139.549 C 198.038 140.366,200.546 142.000,201.779 142.000 C 202.287 142.000,202.926 142.270,203.200 142.600 C 203.594 143.074,204.737 143.200,208.662 143.200 C 212.705 143.200,213.668 143.089,213.855 142.600 C 214.033 142.137,214.805 142.000,217.243 142.000 C 219.783 142.000,220.400 141.883,220.400 141.400 C 220.400 140.952,220.880 140.799,222.300 140.795 C 224.769 140.787,226.000 140.441,226.000 139.753 C 226.000 139.326,226.765 139.200,229.357 139.200 C 231.972 139.200,232.765 139.067,232.945 138.600 C 233.114 138.158,233.812 138.000,235.587 138.000 C 237.465 138.000,238.000 137.867,238.000 137.400 C 238.000 136.948,238.484 136.800,239.957 136.800 C 241.328 136.800,241.983 136.980,242.145 137.400 C 242.279 137.751,242.879 138.000,243.587 138.000 C 244.533 138.000,244.800 138.176,244.800 138.800 C 244.800 139.448,244.533 139.600,243.400 139.600 C 242.422 139.600,242.000 139.781,242.000 140.200 C 242.000 140.530,241.730 140.800,241.400 140.800 C 240.543 140.800,240.533 145.523,241.390 145.851 C 241.909 146.051,241.909 146.148,241.390 146.667 C 241.015 147.042,240.800 148.049,240.800 149.429 C 240.800 151.092,240.660 151.600,240.200 151.600 C 239.805 151.600,239.600 151.995,239.600 152.753 C 239.600 153.570,239.367 153.968,238.800 154.116 C 238.225 154.266,238.000 154.662,238.000 155.520 C 238.000 156.213,237.748 156.811,237.400 156.945 C 237.056 157.077,236.800 157.674,236.800 158.345 C 236.800 159.015,236.544 159.613,236.200 159.745 C 235.859 159.875,235.600 160.472,235.600 161.125 C 235.600 161.768,235.247 162.596,234.800 163.000 C 234.360 163.398,234.000 163.944,234.000 164.213 C 234.000 164.482,233.730 164.926,233.400 165.200 C 233.070 165.474,232.800 166.107,232.800 166.606 C 232.800 167.106,232.530 167.618,232.200 167.745 C 231.870 167.871,231.600 168.391,231.600 168.899 C 231.600 169.407,231.240 170.130,230.800 170.507 C 230.360 170.884,230.000 171.535,230.000 171.953 C 230.000 172.372,229.730 172.818,229.400 172.945 C 228.958 173.114,228.800 173.812,228.800 175.587 L 228.800 178.000 226.963 178.000 C 225.462 178.000,225.087 178.146,224.916 178.800 C 224.801 179.240,224.458 179.600,224.153 179.600 C 223.810 179.600,223.600 180.038,223.600 180.753 C 223.600 181.570,223.367 181.968,222.800 182.116 C 222.217 182.268,222.000 182.662,222.000 183.563 C 222.000 184.396,221.804 184.800,221.400 184.800 C 220.948 184.800,220.800 185.284,220.800 186.757 C 220.800 188.128,220.620 188.783,220.200 188.945 C 219.380 189.259,219.443 190.669,220.300 191.168 C 220.866 191.498,220.713 191.578,219.500 191.588 C 218.439 191.596,218.000 191.775,218.000 192.200 C 218.000 192.600,217.600 192.800,216.800 192.800 C 216.000 192.800,215.600 193.000,215.600 193.400 C 215.600 193.730,215.313 194.000,214.963 194.000 C 214.612 194.000,214.231 194.360,214.116 194.800 C 214.001 195.240,213.658 195.600,213.353 195.600 C 213.005 195.600,212.800 196.045,212.800 196.800 C 212.800 197.600,212.600 198.000,212.200 198.000 C 211.867 198.000,211.600 198.356,211.600 198.800 C 211.600 199.333,211.333 199.600,210.800 199.600 C 210.178 199.600,210.000 199.867,210.000 200.800 C 210.000 201.600,209.800 202.000,209.400 202.000 C 208.981 202.000,208.800 202.422,208.800 203.400 C 208.800 204.378,208.619 204.800,208.200 204.800 C 207.729 204.800,207.600 205.353,207.600 207.378 L 207.600 209.956 205.700 210.078 C 203.878 210.195,203.795 210.254,203.675 211.500 C 203.581 212.476,203.356 212.800,202.775 212.800 C 202.123 212.800,202.000 213.086,202.000 214.600 C 202.000 216.353,201.031 218.000,200.000 218.000 C 199.780 218.000,199.600 218.360,199.600 218.800 C 199.600 219.333,199.333 219.600,198.800 219.600 C 198.356 219.600,198.000 219.867,198.000 220.200 C 198.000 220.530,197.747 220.800,197.438 220.800 C 197.003 220.800,196.867 221.546,196.840 224.083 C 196.814 226.564,196.658 227.448,196.202 227.703 C 195.442 228.128,195.424 229.061,196.168 229.480 C 196.480 229.656,196.795 230.430,196.868 231.200 C 196.986 232.454,197.135 232.613,198.300 232.725 C 199.105 232.803,199.600 233.069,199.600 233.425 C 199.600 233.876,200.279 234.000,202.757 234.000 C 205.195 234.000,205.967 234.137,206.145 234.600 C 206.326 235.072,207.147 235.200,210.000 235.200 C 212.853 235.200,213.674 235.072,213.855 234.600 C 214.017 234.180,214.672 234.000,216.043 234.000 C 217.516 234.000,218.000 233.852,218.000 233.400 C 218.000 232.884,219.293 232.800,227.237 232.800 C 236.138 232.800,236.483 232.771,236.684 232.000 C 236.799 231.560,237.142 231.200,237.447 231.200 C 237.751 231.200,238.000 230.952,238.000 230.649 C 238.000 230.346,238.270 229.874,238.600 229.600 C 238.930 229.326,239.200 228.674,239.200 228.151 C 239.200 227.467,239.424 227.200,240.000 227.200 C 240.444 227.200,240.800 226.933,240.800 226.600 C 240.800 226.270,241.070 226.000,241.400 226.000 C 241.730 226.000,242.000 225.659,242.000 225.243 C 242.000 224.826,242.270 224.382,242.600 224.255 C 243.040 224.087,243.200 223.393,243.200 221.659 C 243.200 219.630,243.314 219.264,244.000 219.084 C 244.529 218.946,244.800 218.538,244.800 217.880 C 244.800 217.333,245.070 216.782,245.400 216.655 C 245.730 216.529,246.000 216.149,246.000 215.813 C 246.000 215.346,246.466 215.200,247.951 215.200 C 249.197 215.200,250.082 214.983,250.400 214.600 C 251.410 213.383,251.600 214.114,251.600 219.213 C 251.600 223.477,251.709 224.467,252.200 224.655 C 252.530 224.782,252.800 225.136,252.800 225.443 C 252.800 225.749,252.530 226.000,252.200 226.000 C 251.870 226.000,251.600 226.270,251.600 226.600 C 251.600 226.930,251.240 227.560,250.800 228.000 C 250.305 228.495,250.000 229.333,250.000 230.200 C 250.000 231.178,249.819 231.600,249.400 231.600 C 249.005 231.600,248.800 231.995,248.800 232.757 C 248.800 233.417,248.542 234.013,248.200 234.145 C 247.849 234.279,247.600 234.879,247.600 235.587 C 247.600 236.357,247.397 236.800,247.043 236.800 C 246.440 236.800,246.000 237.637,246.000 238.784 C 246.000 239.179,245.730 239.726,245.400 240.000 C 245.055 240.286,244.800 241.158,244.800 242.049 C 244.800 243.161,244.630 243.600,244.200 243.600 C 243.870 243.600,243.579 243.915,243.554 244.300 C 243.509 244.967,243.498 244.967,243.324 244.300 C 243.224 243.915,242.906 243.600,242.617 243.600 C 242.329 243.600,241.999 243.240,241.884 242.800 C 241.743 242.259,241.338 242.000,240.637 242.000 C 239.867 242.000,239.600 242.206,239.600 242.800 C 239.600 243.566,239.333 243.600,233.400 243.600 C 228.367 243.600,227.200 243.495,227.200 243.043 C 227.200 242.117,226.237 242.000,218.616 242.000 C 212.599 242.000,211.209 241.893,210.800 241.400 C 210.452 240.980,209.527 240.800,207.722 240.800 C 205.963 240.800,204.952 240.991,204.543 241.400 C 204.061 241.881,202.724 242.000,197.771 242.000 C 192.133 242.000,191.531 242.069,190.800 242.800 C 190.058 243.542,189.467 243.600,182.647 243.600 C 175.630 243.600,175.284 243.563,175.084 242.800 C 174.898 242.089,174.538 242.000,171.837 242.000 L 168.800 242.000 168.800 240.643 C 168.800 239.776,169.028 239.198,169.431 239.044 C 169.850 238.883,170.037 238.365,169.990 237.501 C 169.880 235.485,169.955 235.200,170.600 235.200 C 170.930 235.200,171.200 234.951,171.200 234.647 C 171.200 234.342,171.560 233.999,172.000 233.884 C 172.583 233.732,172.800 233.338,172.800 232.437 C 172.800 231.604,172.996 231.200,173.400 231.200 C 173.819 231.200,174.000 230.778,174.000 229.800 C 174.000 228.822,174.181 228.400,174.600 228.400 C 175.039 228.400,175.200 227.944,175.200 226.696 C 175.200 225.426,175.403 224.865,176.000 224.493 C 176.462 224.204,176.800 223.560,176.800 222.968 C 176.800 222.404,177.070 221.673,177.400 221.343 C 177.771 220.972,178.000 219.990,178.000 218.771 C 178.000 216.834,178.022 216.800,179.237 216.800 C 180.138 216.800,180.532 216.583,180.684 216.000 C 180.799 215.560,181.142 215.200,181.447 215.200 C 181.823 215.200,182.000 214.703,182.000 213.649 C 182.000 212.758,182.255 211.886,182.600 211.600 C 182.930 211.326,183.200 210.624,183.200 210.040 C 183.200 209.456,183.560 208.670,184.000 208.293 C 184.518 207.849,184.800 207.113,184.800 206.204 C 184.800 205.223,184.981 204.800,185.400 204.800 C 185.819 204.800,186.000 204.378,186.000 203.400 C 186.000 202.422,186.181 202.000,186.600 202.000 C 187.019 202.000,187.200 201.578,187.200 200.600 C 187.200 199.642,187.384 199.200,187.782 199.200 C 188.128 199.200,188.468 198.644,188.621 197.828 C 188.763 197.073,189.131 196.359,189.439 196.240 C 189.748 196.122,190.000 195.564,190.000 195.000 C 190.000 194.436,190.270 193.871,190.600 193.745 C 190.942 193.613,191.200 193.017,191.200 192.357 C 191.200 191.624,191.408 191.200,191.768 191.200 C 192.081 191.200,192.452 190.675,192.593 190.033 C 192.734 189.392,193.108 188.767,193.424 188.646 C 193.741 188.524,194.000 188.149,194.000 187.813 C 194.000 187.476,194.270 187.200,194.600 187.200 C 194.930 187.200,195.200 186.930,195.200 186.600 C 195.200 186.270,195.451 186.000,195.757 186.000 C 196.064 186.000,196.412 185.747,196.530 185.438 C 196.649 185.128,197.298 184.754,197.973 184.606 C 198.648 184.458,199.200 184.081,199.200 183.768 C 199.200 183.456,199.451 183.200,199.757 183.200 C 201.001 183.200,200.904 180.842,199.657 180.754 C 199.066 180.712,199.067 180.689,199.674 180.529 C 200.044 180.432,200.460 179.837,200.598 179.209 C 200.736 178.581,201.108 177.967,201.424 177.846 C 201.808 177.699,202.000 177.021,202.000 175.813 C 202.000 174.410,202.146 174.000,202.647 174.000 C 203.121 174.000,203.242 173.733,203.102 172.999 C 202.971 172.313,203.208 171.677,203.855 170.978 C 204.469 170.316,204.800 169.475,204.800 168.579 L 204.800 167.200 207.400 167.200 C 209.468 167.200,210.000 167.075,210.000 166.587 C 210.000 166.251,210.270 165.871,210.600 165.745 C 211.004 165.590,211.200 164.955,211.200 163.804 C 211.200 162.430,211.357 162.052,212.000 161.884 C 212.574 161.734,212.800 161.338,212.800 160.486 C 212.800 159.833,213.070 159.074,213.400 158.800 C 213.730 158.526,214.000 157.975,214.000 157.576 C 214.000 157.050,214.357 156.816,215.300 156.725 L 216.600 156.600 216.717 153.467 C 216.825 150.597,216.766 150.316,216.017 150.120 C 215.568 150.003,215.200 149.658,215.200 149.353 C 215.200 148.487,181.277 148.533,180.945 149.400 C 180.818 149.730,180.464 150.000,180.157 150.000 C 179.851 150.000,179.600 150.360,179.600 150.800 C 179.600 151.333,179.333 151.600,178.800 151.600 C 178.356 151.600,178.000 151.867,178.000 152.200 C 178.000 152.530,177.730 152.800,177.400 152.800 C 177.070 152.800,176.800 153.070,176.800 153.400 C 176.800 153.730,176.530 154.000,176.200 154.000 C 175.867 154.000,175.600 154.356,175.600 154.800 C 175.600 155.333,175.333 155.600,174.800 155.600 C 174.178 155.600,174.000 155.867,174.000 156.800 C 174.000 157.600,173.800 158.000,173.400 158.000 C 173.067 158.000,172.800 158.356,172.800 158.800 C 172.800 159.244,172.533 159.600,172.200 159.600 C 171.870 159.600,171.600 159.780,171.600 160.000 C 171.600 160.220,171.240 160.760,170.800 161.200 C 170.360 161.640,170.000 162.360,170.000 162.800 C 170.000 163.244,169.733 163.600,169.400 163.600 C 169.070 163.600,168.800 163.870,168.800 164.200 C 168.800 164.530,168.530 164.800,168.200 164.800 C 167.781 164.800,167.600 165.222,167.600 166.200 L 167.600 167.600 165.629 167.600 C 164.089 167.600,163.619 167.753,163.476 168.300 C 163.375 168.685,163.272 166.546,163.246 163.547 C 163.203 158.409,163.246 158.081,164.000 157.884 C 164.575 157.734,164.800 157.338,164.800 156.480 C 164.800 155.786,165.052 155.189,165.402 155.055 C 166.247 154.730,166.216 146.274,165.367 145.424 C 165.040 145.097,164.800 144.068,164.800 142.991 C 164.800 141.462,164.656 141.087,164.000 140.916 C 162.395 140.496,162.909 138.000,164.600 138.000 C 165.578 138.000,166.000 137.819,166.000 137.400 C 166.000 137.070,166.270 136.800,166.600 136.800 C 167.017 136.800,167.200 136.381,167.200 135.429 C 167.200 134.448,167.399 134.016,167.900 133.909 C 168.982 133.677,170.000 134.035,170.000 134.647 M252.225 139.200 C 252.541 139.200,252.800 139.560,252.800 140.000 C 252.800 140.452,253.067 140.800,253.413 140.800 C 253.749 140.800,254.129 141.070,254.255 141.400 C 254.437 141.874,255.272 142.000,258.243 142.000 C 261.316 142.000,262.000 142.109,262.000 142.600 C 262.000 143.472,270.861 143.482,271.732 142.611 C 272.327 142.016,284.943 141.610,285.501 142.168 C 285.629 142.296,285.523 142.400,285.267 142.400 C 285.010 142.400,284.800 142.670,284.800 143.000 C 284.800 143.330,284.530 143.600,284.200 143.600 C 283.870 143.600,283.600 143.849,283.600 144.153 C 283.600 144.458,283.240 144.801,282.800 144.916 C 282.146 145.087,282.000 145.462,282.000 146.963 C 282.000 148.329,281.846 148.800,281.400 148.800 C 280.884 148.800,280.800 150.089,280.800 158.000 C 280.800 165.911,280.884 167.200,281.400 167.200 C 281.730 167.200,282.000 167.487,282.000 167.837 C 282.000 168.188,282.360 168.569,282.800 168.684 C 283.240 168.799,283.600 169.142,283.600 169.447 C 283.600 169.751,283.870 170.000,284.200 170.000 C 284.530 170.000,284.800 170.270,284.800 170.600 C 284.800 170.930,284.977 171.200,285.193 171.200 C 285.409 171.200,286.234 171.830,287.027 172.600 C 287.820 173.370,288.813 174.000,289.234 174.000 C 289.655 174.000,290.000 174.270,290.000 174.600 C 290.000 174.933,290.356 175.200,290.800 175.200 C 291.333 175.200,291.600 175.467,291.600 176.000 C 291.600 176.693,291.867 176.800,293.600 176.800 L 295.600 176.800 295.600 180.600 C 295.600 183.711,295.709 184.400,296.200 184.400 C 296.533 184.400,296.800 184.756,296.800 185.200 C 296.800 185.644,297.067 186.000,297.400 186.000 C 297.730 186.000,298.000 186.270,298.000 186.600 C 298.000 187.001,298.401 187.200,299.213 187.200 C 299.921 187.200,300.521 186.951,300.655 186.600 C 300.787 186.258,301.383 186.000,302.043 186.000 C 302.761 186.000,303.200 185.790,303.200 185.447 C 303.200 185.142,303.560 184.799,304.000 184.684 C 304.440 184.569,304.800 184.188,304.800 183.837 C 304.800 183.487,305.070 183.200,305.400 183.200 C 305.730 183.200,306.000 182.930,306.000 182.600 C 306.000 182.270,306.270 182.000,306.600 182.000 C 306.933 182.000,307.200 181.644,307.200 181.200 C 307.200 180.760,307.456 180.400,307.768 180.400 C 308.081 180.400,308.455 179.860,308.600 179.200 C 308.745 178.540,309.119 178.000,309.432 178.000 C 309.744 178.000,310.000 177.724,310.000 177.387 C 310.000 177.051,310.270 176.671,310.600 176.545 C 310.934 176.416,311.200 175.822,311.200 175.204 C 311.200 174.430,311.442 174.030,312.000 173.884 C 312.583 173.732,312.800 173.338,312.800 172.437 C 312.800 171.604,312.996 171.200,313.400 171.200 C 313.883 171.200,314.000 170.578,314.000 168.000 C 314.000 164.897,314.029 164.800,314.951 164.800 C 316.135 164.800,316.961 163.857,316.688 162.816 C 316.575 162.382,316.599 162.043,316.741 162.061 C 317.710 162.187,318.000 161.857,318.000 160.629 C 318.000 159.874,317.730 158.987,317.400 158.657 C 317.070 158.327,316.800 157.774,316.800 157.429 C 316.800 157.067,316.461 156.800,316.000 156.800 C 315.556 156.800,315.200 156.533,315.200 156.200 C 315.200 155.870,315.020 155.600,314.800 155.600 C 314.580 155.600,314.034 155.234,313.587 154.787 C 312.917 154.117,312.331 153.990,310.266 154.066 C 308.143 154.144,307.624 154.024,306.879 153.279 C 305.867 152.267,305.724 151.200,306.600 151.200 C 306.930 151.200,307.200 150.930,307.200 150.600 C 307.200 150.084,308.490 150.000,316.413 150.000 C 324.232 150.000,325.660 149.909,325.855 149.400 C 325.989 149.052,326.587 148.800,327.280 148.800 C 328.138 148.800,328.534 148.575,328.684 148.000 C 328.853 147.352,329.230 147.200,330.659 147.200 C 331.860 147.200,332.499 147.008,332.655 146.600 C 332.844 146.110,333.828 146.000,338.043 146.000 C 341.914 146.000,343.200 145.875,343.200 145.498 C 343.200 145.222,343.830 144.799,344.600 144.558 C 345.370 144.317,346.000 144.273,346.000 144.460 C 346.000 144.647,345.730 144.800,345.400 144.800 C 345.070 144.800,344.800 145.070,344.800 145.400 C 344.800 145.730,344.530 146.000,344.200 146.000 C 343.870 146.000,343.600 146.270,343.600 146.600 C 343.600 146.930,343.240 147.560,342.800 148.000 C 342.360 148.440,342.000 149.070,342.000 149.400 C 342.000 149.730,341.716 150.000,341.369 150.000 C 340.895 150.000,340.756 150.372,340.808 151.500 C 340.921 153.942,340.888 154.000,339.377 154.000 C 337.817 154.000,335.600 155.930,335.600 157.289 C 335.600 157.733,335.300 158.000,334.800 158.000 C 334.267 158.000,334.000 158.267,334.000 158.800 C 334.000 159.482,333.733 159.600,332.187 159.600 C 330.945 159.600,330.302 159.789,330.145 160.200 C 330.018 160.530,329.664 160.800,329.357 160.800 C 329.051 160.800,328.800 161.076,328.800 161.413 C 328.800 161.749,328.530 162.129,328.200 162.255 C 327.793 162.412,327.600 163.050,327.600 164.243 C 327.600 165.733,327.479 166.000,326.800 166.000 C 326.267 166.000,326.000 166.267,326.000 166.800 C 326.000 167.244,325.733 167.600,325.400 167.600 C 325.070 167.600,324.800 167.870,324.800 168.200 C 324.800 168.530,324.530 168.800,324.200 168.800 C 323.870 168.800,323.600 168.972,323.600 169.182 C 323.600 169.678,321.678 171.600,321.182 171.600 C 320.972 171.600,320.800 172.140,320.800 172.800 C 320.800 173.600,320.600 174.000,320.200 174.000 C 319.867 174.000,319.600 174.356,319.600 174.800 C 319.600 175.333,319.333 175.600,318.800 175.600 C 318.356 175.600,318.000 175.867,318.000 176.200 C 318.000 176.530,317.730 176.800,317.400 176.800 C 317.070 176.800,316.800 177.076,316.800 177.413 C 316.800 177.749,316.530 178.129,316.200 178.255 C 315.858 178.387,315.600 178.983,315.600 179.643 C 315.600 180.533,315.416 180.800,314.800 180.800 C 314.356 180.800,314.000 181.067,314.000 181.400 C 314.000 181.730,313.730 182.000,313.400 182.000 C 313.067 182.000,312.800 182.356,312.800 182.800 C 312.800 183.244,312.533 183.600,312.200 183.600 C 311.800 183.600,311.600 184.000,311.600 184.800 C 311.600 185.733,311.422 186.000,310.800 186.000 C 310.220 186.000,310.000 186.267,310.000 186.971 C 310.000 187.506,309.730 188.213,309.400 188.543 C 309.070 188.873,308.800 189.696,308.800 190.371 C 308.800 191.197,308.603 191.600,308.200 191.600 C 307.870 191.600,307.600 191.870,307.600 192.200 C 307.600 192.533,307.244 192.800,306.800 192.800 C 306.356 192.800,306.000 193.067,306.000 193.400 C 306.000 193.730,305.730 194.000,305.400 194.000 C 304.985 194.000,304.800 194.417,304.800 195.357 C 304.800 196.195,304.570 196.803,304.200 196.945 C 303.736 197.123,303.600 197.901,303.600 200.387 C 303.600 202.867,303.473 203.600,303.043 203.600 C 302.053 203.600,302.000 204.598,302.000 223.371 C 302.000 241.368,302.022 241.896,302.800 242.600 C 303.240 242.998,303.600 243.572,303.600 243.875 C 303.600 244.177,303.870 244.529,304.200 244.655 C 304.530 244.782,304.800 245.136,304.800 245.443 C 304.800 245.749,305.070 246.000,305.400 246.000 C 305.730 246.000,306.000 246.270,306.000 246.600 C 306.000 246.933,306.356 247.200,306.800 247.200 C 307.333 247.200,307.600 247.467,307.600 248.000 C 307.600 248.444,307.867 248.800,308.200 248.800 C 308.575 248.800,308.800 249.179,308.800 249.813 C 308.800 250.369,309.070 250.929,309.400 251.055 C 309.758 251.193,310.000 251.795,310.000 252.547 C 310.000 253.374,310.275 253.979,310.800 254.307 C 311.504 254.747,311.600 255.240,311.600 258.403 L 311.600 262.000 306.296 262.000 C 301.426 262.000,300.952 262.065,300.493 262.800 C 300.019 263.559,299.560 263.600,291.597 263.600 C 283.467 263.600,283.200 263.575,283.200 262.800 C 283.200 262.107,282.933 262.000,281.200 262.000 C 279.689 262.000,279.200 261.853,279.200 261.400 C 279.200 260.985,278.783 260.800,277.843 260.800 C 277.005 260.800,276.397 260.570,276.255 260.200 C 276.105 259.807,275.433 259.584,274.313 259.554 C 273.371 259.528,272.915 259.425,273.300 259.324 C 273.685 259.224,274.000 258.885,274.000 258.571 C 274.000 258.257,274.270 258.000,274.600 258.000 C 274.930 258.000,275.200 257.770,275.200 257.489 C 275.200 257.208,275.560 256.670,276.000 256.293 C 276.440 255.916,276.800 255.246,276.800 254.804 C 276.800 254.356,277.066 254.000,277.400 254.000 C 277.740 254.000,278.000 253.641,278.000 253.171 C 278.000 252.716,278.270 252.073,278.600 251.743 C 278.930 251.413,279.200 250.616,279.200 249.971 C 279.200 248.899,279.319 248.800,280.600 248.800 C 281.578 248.800,282.000 248.981,282.000 249.400 C 282.000 249.830,282.439 250.000,283.551 250.000 C 284.442 250.000,285.314 249.745,285.600 249.400 C 285.874 249.070,286.346 248.800,286.649 248.800 C 286.952 248.800,287.200 248.440,287.200 248.000 C 287.200 247.560,287.451 247.200,287.757 247.200 C 288.683 247.200,288.800 246.236,288.800 238.600 C 288.800 230.964,288.683 230.000,287.757 230.000 C 287.363 230.000,287.200 229.470,287.200 228.187 C 287.200 226.945,287.011 226.302,286.600 226.145 C 286.117 225.959,286.000 225.060,286.000 221.545 C 286.000 218.029,285.883 217.130,285.400 216.945 C 285.002 216.792,284.798 216.157,284.795 215.057 C 284.787 212.819,284.420 211.600,283.753 211.600 C 283.356 211.600,283.200 211.036,283.200 209.600 C 283.200 208.089,283.053 207.600,282.600 207.600 C 282.128 207.600,282.000 207.043,282.000 204.987 C 282.000 203.034,281.849 202.317,281.400 202.145 C 280.933 201.966,280.800 201.176,280.800 198.590 C 280.800 194.923,280.590 194.000,279.757 194.000 C 279.451 194.000,279.200 193.730,279.200 193.400 C 279.200 193.070,278.930 192.800,278.600 192.800 C 278.270 192.800,278.000 192.530,278.000 192.200 C 278.000 191.870,277.751 191.600,277.447 191.600 C 277.142 191.600,276.799 191.240,276.684 190.800 C 276.532 190.217,276.138 190.000,275.237 190.000 L 274.000 190.000 274.000 185.587 C 274.000 182.117,273.877 181.128,273.424 180.954 C 273.108 180.833,272.734 180.208,272.593 179.567 C 272.452 178.925,272.198 178.400,272.029 178.400 C 270.624 178.400,269.879 176.738,269.965 173.797 C 270.035 171.387,269.929 170.748,269.426 170.555 C 269.082 170.423,268.800 169.974,268.800 169.557 C 268.800 169.141,268.440 168.440,268.000 168.000 C 267.560 167.560,267.200 167.014,267.200 166.787 C 267.200 166.561,266.930 166.271,266.600 166.145 C 266.270 166.018,266.000 165.664,266.000 165.357 C 266.000 165.051,265.749 164.800,265.443 164.800 C 265.136 164.800,264.782 164.530,264.655 164.200 C 264.529 163.870,264.149 163.600,263.813 163.600 C 263.467 163.600,263.200 163.252,263.200 162.800 C 263.200 162.356,262.933 162.000,262.600 162.000 C 262.270 162.000,262.000 161.730,262.000 161.400 C 262.000 161.070,261.724 160.800,261.387 160.800 C 261.051 160.800,260.671 160.530,260.545 160.200 C 260.418 159.870,260.064 159.600,259.757 159.600 C 259.451 159.600,259.200 159.240,259.200 158.800 C 259.200 158.356,258.933 158.000,258.600 158.000 C 258.270 158.000,258.000 157.730,258.000 157.400 C 258.000 157.070,257.730 156.800,257.400 156.800 C 256.996 156.800,256.800 156.396,256.800 155.563 C 256.800 154.662,256.583 154.268,256.000 154.116 C 255.341 153.944,255.200 153.570,255.200 152.002 C 255.200 150.798,254.980 149.915,254.600 149.600 C 254.216 149.281,254.000 148.396,254.000 147.138 C 254.000 145.762,253.821 145.106,253.400 144.945 C 253.070 144.818,252.800 144.464,252.800 144.157 C 252.800 143.851,252.440 143.600,252.000 143.600 C 251.467 143.600,251.200 143.333,251.200 142.800 C 251.200 142.356,250.933 142.000,250.600 142.000 C 250.147 142.000,250.000 141.511,250.000 140.000 C 250.000 138.489,250.147 138.000,250.600 138.000 C 250.930 138.000,251.229 137.685,251.264 137.300 C 251.299 136.915,251.401 137.185,251.489 137.900 C 251.587 138.689,251.877 139.200,252.225 139.200 M148.225 140.400 C 148.541 140.400,148.800 140.760,148.800 141.200 C 148.800 141.644,148.533 142.000,148.200 142.000 C 147.741 142.000,147.600 142.506,147.600 144.151 C 147.600 145.591,147.398 146.469,146.990 146.808 C 146.445 147.260,146.452 147.394,147.052 148.057 C 147.698 148.772,147.646 148.800,145.662 148.800 C 143.961 148.800,143.600 148.923,143.600 149.504 C 143.600 150.032,143.276 150.207,142.300 150.204 L 141.000 150.200 140.882 153.106 C 140.788 155.431,140.888 156.059,141.382 156.249 C 141.722 156.379,142.000 156.826,142.000 157.243 C 142.000 157.733,142.282 158.000,142.800 158.000 C 143.512 158.000,143.600 158.267,143.600 160.413 C 143.600 162.188,143.758 162.886,144.200 163.055 C 145.111 163.405,145.111 216.800,144.200 216.800 C 143.749 216.800,143.600 217.284,143.600 218.753 C 143.600 220.370,143.462 220.743,142.800 220.916 C 142.217 221.068,142.000 221.462,142.000 222.363 C 142.000 223.196,141.804 223.600,141.400 223.600 C 141.070 223.600,140.800 223.870,140.800 224.200 C 140.800 224.530,140.530 224.800,140.200 224.800 C 139.685 224.800,139.600 226.022,139.600 233.400 C 139.600 240.778,139.685 242.000,140.200 242.000 C 140.530 242.000,140.800 242.270,140.800 242.600 C 140.800 242.930,141.070 243.200,141.400 243.200 C 141.730 243.200,142.000 243.476,142.000 243.813 C 142.000 244.149,142.315 244.541,142.700 244.682 C 143.085 244.824,143.544 245.178,143.720 245.470 C 143.896 245.761,144.481 246.000,145.020 246.000 C 145.624 246.000,146.000 246.230,146.000 246.600 C 146.000 247.019,146.422 247.200,147.400 247.200 C 148.330 247.200,148.800 247.387,148.800 247.757 C 148.800 248.064,149.070 248.418,149.400 248.545 C 150.229 248.863,150.229 251.600,149.400 251.600 C 149.070 251.600,148.800 251.870,148.800 252.200 C 148.800 252.619,148.378 252.800,147.400 252.800 C 146.422 252.800,146.000 252.981,146.000 253.400 C 146.000 253.730,145.730 254.000,145.400 254.000 C 145.067 254.000,144.800 254.356,144.800 254.800 L 144.800 255.600 144.000 254.800 C 143.552 254.352,142.667 254.000,141.987 254.000 C 141.279 254.000,140.679 253.751,140.545 253.400 C 140.357 252.910,139.377 252.800,135.200 252.800 C 131.023 252.800,130.043 252.690,129.855 252.200 C 129.668 251.711,128.699 251.600,124.613 251.600 C 120.133 251.600,119.515 251.515,118.800 250.800 C 118.305 250.305,117.467 250.000,116.600 250.000 C 115.622 250.000,115.200 249.819,115.200 249.400 C 115.200 249.025,114.821 248.800,114.187 248.800 C 113.631 248.800,113.071 248.530,112.945 248.200 C 112.818 247.870,112.464 247.600,112.157 247.600 C 111.851 247.600,111.240 247.240,110.800 246.800 C 110.360 246.360,109.640 246.000,109.200 246.000 C 108.756 246.000,108.400 245.733,108.400 245.400 C 108.400 245.000,108.000 244.800,107.200 244.800 C 105.532 244.800,105.360 242.247,107.000 241.836 C 107.550 241.698,108.000 241.408,108.000 241.192 C 108.000 240.955,110.206 240.800,113.600 240.800 C 118.933 240.800,119.200 240.762,119.200 240.000 C 119.200 239.560,119.451 239.200,119.757 239.200 C 120.633 239.200,120.799 238.264,120.813 233.267 C 120.822 229.798,120.976 228.401,121.413 227.824 C 121.873 227.215,122.000 225.645,122.000 220.566 C 122.000 215.213,122.103 214.046,122.592 213.858 C 123.459 213.526,123.447 203.600,122.579 203.600 C 122.261 203.600,122.000 203.349,122.000 203.043 C 122.000 201.713,107.305 201.392,106.317 202.700 C 106.026 203.085,105.431 203.598,104.994 203.839 C 104.557 204.081,103.978 204.711,103.706 205.239 C 103.218 206.188,103.212 206.184,103.206 204.900 C 103.200 203.694,103.104 203.600,101.862 203.600 C 101.032 203.600,100.249 203.296,99.800 202.800 C 98.685 201.568,85.076 201.568,84.307 202.800 C 83.951 203.370,83.374 203.600,82.304 203.600 C 80.861 203.600,80.800 203.655,80.800 204.957 C 80.800 205.795,80.570 206.403,80.200 206.545 C 79.295 206.892,79.295 236.308,80.200 236.655 C 80.530 236.782,80.800 237.322,80.800 237.855 C 80.800 238.389,81.070 238.929,81.400 239.055 C 81.730 239.182,82.000 239.517,82.000 239.800 C 82.000 240.373,82.868 240.800,84.033 240.800 C 84.455 240.800,84.800 241.070,84.800 241.400 C 84.800 241.867,85.335 242.000,87.213 242.000 C 88.988 242.000,89.686 241.842,89.855 241.400 C 90.138 240.664,91.162 240.645,92.100 241.357 C 93.004 242.043,93.084 244.800,92.200 244.800 C 91.870 244.800,91.600 245.070,91.600 245.400 C 91.600 245.873,91.040 246.000,88.963 246.000 C 86.662 246.000,86.298 246.102,86.116 246.800 C 85.943 247.462,85.570 247.600,83.953 247.600 C 82.484 247.600,82.000 247.749,82.000 248.200 C 82.000 248.642,81.538 248.800,80.243 248.800 C 79.132 248.800,78.409 249.000,78.277 249.343 C 78.163 249.642,77.513 249.997,76.834 250.133 C 76.103 250.279,75.600 250.628,75.600 250.990 C 75.600 251.420,75.188 251.600,74.200 251.600 C 73.222 251.600,72.800 251.781,72.800 252.200 C 72.800 252.601,72.399 252.800,71.587 252.800 C 70.879 252.800,70.279 253.049,70.145 253.400 C 70.018 253.730,69.467 254.000,68.920 254.000 C 68.262 254.000,67.854 254.271,67.716 254.800 C 67.559 255.401,67.170 255.600,66.153 255.600 C 65.217 255.600,64.800 255.785,64.800 256.200 C 64.800 256.693,64.089 256.800,60.800 256.800 L 56.800 256.800 56.800 254.800 C 56.800 253.067,56.693 252.800,56.000 252.800 C 55.352 252.800,55.200 252.533,55.200 251.400 C 55.200 250.451,55.015 250.000,54.627 250.000 C 54.298 250.000,53.999 249.530,53.927 248.900 C 53.812 247.902,53.615 247.778,51.800 247.563 C 50.339 247.390,50.153 247.309,51.113 247.263 C 51.864 247.227,52.524 246.944,52.655 246.600 C 52.787 246.258,53.383 246.000,54.043 246.000 C 54.805 246.000,55.200 245.795,55.200 245.400 C 55.200 245.070,55.470 244.800,55.800 244.800 C 56.130 244.800,56.729 244.471,57.131 244.069 C 57.532 243.668,58.162 243.223,58.531 243.082 C 59.500 242.710,59.569 208.800,58.600 208.800 C 58.170 208.800,58.000 208.361,58.000 207.249 C 58.000 206.358,57.745 205.486,57.400 205.200 C 56.889 204.776,56.800 202.745,56.800 191.483 C 56.800 177.307,56.729 176.800,54.738 176.800 C 54.332 176.800,54.000 176.543,54.000 176.229 C 54.000 175.915,53.685 175.576,53.300 175.476 C 52.915 175.375,53.815 175.272,55.300 175.246 C 57.413 175.210,58.000 175.069,58.000 174.600 C 58.000 174.270,58.270 174.000,58.600 174.000 C 59.111 174.000,59.200 172.933,59.200 166.800 C 59.200 160.667,59.111 159.600,58.600 159.600 C 58.124 159.600,58.000 159.022,58.000 156.800 C 58.000 154.578,57.876 154.000,57.400 154.000 C 57.070 154.000,56.800 153.730,56.800 153.400 C 56.800 153.067,56.444 152.800,56.000 152.800 C 55.556 152.800,55.200 152.533,55.200 152.200 C 55.200 151.870,54.930 151.600,54.600 151.600 C 54.267 151.600,54.000 151.244,54.000 150.800 C 54.000 150.356,53.733 150.000,53.400 150.000 C 53.070 150.000,52.800 149.730,52.800 149.400 C 52.800 149.067,52.444 148.800,52.000 148.800 C 51.556 148.800,51.200 148.533,51.200 148.200 C 51.200 147.792,50.792 147.600,49.928 147.600 L 48.656 147.600 49.928 146.464 C 50.754 145.727,51.200 144.956,51.200 144.264 C 51.200 143.467,51.400 143.200,52.000 143.200 C 52.444 143.200,52.800 142.933,52.800 142.600 C 52.800 142.270,53.070 142.000,53.400 142.000 C 53.817 142.000,54.000 141.580,54.000 140.620 L 54.000 139.241 55.500 140.637 C 56.939 141.976,57.108 142.029,59.640 141.917 C 61.785 141.822,62.272 141.912,62.240 142.400 C 62.208 142.887,62.916 143.021,66.000 143.110 C 69.045 143.199,69.903 143.358,70.317 143.910 C 70.763 144.506,71.597 144.600,76.416 144.600 L 81.999 144.600 82.000 145.900 C 82.000 147.019,82.139 147.200,82.997 147.200 C 83.560 147.200,84.210 147.548,84.493 148.000 C 84.876 148.614,85.426 148.800,86.853 148.800 C 88.188 148.800,88.784 148.980,88.959 149.438 C 89.148 149.931,89.650 150.045,91.158 149.938 L 93.111 149.800 92.255 150.632 C 91.785 151.089,91.085 151.579,90.700 151.719 C 90.174 151.911,90.000 152.425,90.000 153.787 C 90.000 155.849,89.117 156.255,87.800 154.800 C 87.288 154.234,86.568 154.000,85.338 154.000 C 83.867 154.000,83.600 154.123,83.600 154.800 C 83.600 155.448,83.333 155.600,82.200 155.600 C 80.911 155.600,80.800 155.695,80.800 156.800 C 80.800 157.600,80.600 158.000,80.200 158.000 C 79.676 158.000,79.600 160.176,79.600 175.182 L 79.600 192.364 80.900 192.605 C 84.140 193.207,101.244 192.629,101.777 191.900 C 102.058 191.515,102.769 191.200,103.357 191.200 C 103.944 191.200,104.529 190.930,104.655 190.600 C 104.945 189.844,105.968 189.850,106.976 190.613 C 107.404 190.936,108.349 191.200,109.076 191.200 C 109.937 191.200,110.400 191.394,110.400 191.753 C 110.400 192.506,111.666 192.788,115.067 192.795 C 118.046 192.800,119.200 192.566,119.200 191.957 C 119.200 191.761,119.560 191.240,120.000 190.800 C 120.773 190.027,120.800 189.467,120.800 174.163 C 120.800 158.662,120.783 158.321,120.000 158.116 C 119.560 158.001,119.200 157.658,119.200 157.353 C 119.200 157.049,118.930 156.800,118.600 156.800 C 118.270 156.800,118.000 156.530,118.000 156.200 C 118.000 155.785,117.583 155.600,116.647 155.600 C 115.630 155.600,115.241 155.401,115.084 154.800 C 114.906 154.120,114.538 154.000,112.625 154.000 C 110.994 154.000,110.312 153.835,110.145 153.400 C 110.018 153.070,109.664 152.800,109.357 152.800 C 109.051 152.800,108.800 152.614,108.800 152.387 C 108.800 152.160,108.395 151.811,107.900 151.612 C 107.187 151.326,107.436 151.245,109.100 151.225 C 110.879 151.204,111.200 151.085,111.200 150.449 C 111.200 149.024,112.273 148.628,115.807 148.751 C 118.734 148.852,119.235 148.765,119.967 148.033 C 120.425 147.575,121.070 147.200,121.400 147.200 C 121.730 147.200,122.000 146.930,122.000 146.600 C 122.000 146.270,122.270 146.000,122.600 146.000 C 122.930 146.000,123.200 145.730,123.200 145.400 C 123.200 144.954,123.671 144.800,125.037 144.800 C 126.538 144.800,126.913 144.654,127.084 144.000 C 127.319 143.103,128.800 142.890,128.800 143.753 C 128.800 145.089,136.338 145.325,136.684 144.000 C 136.853 143.352,137.230 143.200,138.659 143.200 C 139.860 143.200,140.499 143.008,140.655 142.600 C 140.787 142.258,141.383 142.000,142.043 142.000 C 142.805 142.000,143.200 141.795,143.200 141.400 C 143.200 140.996,143.604 140.800,144.437 140.800 C 145.338 140.800,145.732 140.583,145.884 140.000 C 145.999 139.560,146.342 139.200,146.647 139.200 C 146.951 139.200,147.229 138.885,147.264 138.500 C 147.299 138.115,147.401 138.385,147.489 139.100 C 147.587 139.889,147.877 140.400,148.225 140.400 M160.229 142.000 C 160.665 142.000,160.800 142.615,160.800 144.600 C 160.800 146.644,160.928 147.200,161.400 147.200 C 161.876 147.200,162.000 147.778,162.000 150.000 C 162.000 152.222,161.876 152.800,161.400 152.800 C 160.985 152.800,160.800 153.217,160.800 154.151 C 160.800 154.894,160.530 155.726,160.200 156.000 C 159.854 156.287,159.600 157.160,159.600 158.062 C 159.600 159.082,159.392 159.705,159.000 159.855 C 158.523 160.038,158.400 160.888,158.400 163.982 C 158.400 170.016,157.979 174.000,157.341 174.000 C 156.993 174.000,156.800 174.483,156.800 175.357 C 156.800 176.195,156.570 176.803,156.200 176.945 C 155.447 177.234,155.348 181.988,156.080 182.720 C 157.192 183.832,160.800 183.315,160.800 182.043 C 160.800 181.383,161.058 180.787,161.400 180.655 C 161.751 180.521,162.000 179.921,162.000 179.213 C 162.000 178.401,162.199 178.000,162.600 178.000 C 163.019 178.000,163.200 177.578,163.200 176.600 C 163.200 175.612,163.380 175.200,163.810 175.200 C 164.165 175.200,164.518 174.709,164.655 174.026 C 164.784 173.380,165.140 172.755,165.445 172.638 C 165.750 172.521,166.000 172.149,166.000 171.813 C 166.000 171.379,166.409 171.200,167.400 171.200 C 168.533 171.200,168.800 171.352,168.800 172.000 C 168.800 172.440,169.048 172.800,169.350 172.800 C 169.653 172.800,170.008 173.340,170.140 174.000 C 170.406 175.329,172.216 175.721,173.271 174.678 C 173.562 174.390,174.115 174.036,174.500 173.890 C 175.437 173.535,175.528 170.000,174.600 170.000 C 174.270 170.000,174.000 169.730,174.000 169.400 C 174.000 169.070,173.730 168.800,173.400 168.800 C 173.070 168.800,172.800 168.530,172.800 168.200 C 172.800 167.853,172.421 167.588,171.900 167.572 C 171.250 167.552,171.167 167.468,171.601 167.272 C 172.961 166.656,174.000 165.374,174.000 164.311 C 174.000 163.590,174.211 163.200,174.600 163.200 C 174.930 163.200,175.200 162.930,175.200 162.600 C 175.200 162.270,175.451 162.000,175.757 162.000 C 176.369 162.000,176.800 161.159,176.800 159.967 C 176.800 159.545,177.070 159.200,177.400 159.200 C 177.730 159.200,178.000 158.930,178.000 158.600 C 178.000 158.270,178.270 158.000,178.600 158.000 C 178.930 158.000,179.200 157.828,179.200 157.618 C 179.200 157.408,179.658 156.778,180.218 156.218 C 180.778 155.658,181.408 155.200,181.618 155.200 C 181.828 155.200,182.000 154.930,182.000 154.600 C 182.000 154.270,182.270 154.000,182.600 154.000 C 182.930 154.000,183.200 153.730,183.200 153.400 C 183.200 152.882,184.600 152.800,193.400 152.800 L 203.600 152.800 203.600 155.304 C 203.600 157.374,203.462 157.894,202.800 158.307 C 202.145 158.716,202.000 159.240,202.000 161.203 C 202.000 163.119,201.873 163.600,201.369 163.600 C 200.910 163.600,200.758 163.953,200.810 164.900 C 200.967 167.763,200.805 168.800,200.200 168.800 C 199.747 168.800,199.600 169.289,199.600 170.800 C 199.600 172.533,199.493 172.800,198.800 172.800 C 198.152 172.800,198.000 173.067,198.000 174.200 C 198.000 175.178,197.819 175.600,197.400 175.600 C 197.000 175.600,196.800 176.000,196.800 176.800 C 196.800 177.600,196.600 178.000,196.200 178.000 C 195.781 178.000,195.600 178.422,195.600 179.400 C 195.600 180.533,195.448 180.800,194.800 180.800 C 194.356 180.800,194.000 181.067,194.000 181.400 C 194.000 181.730,193.730 182.000,193.400 182.000 C 193.067 182.000,192.800 182.356,192.800 182.800 C 192.800 183.244,192.533 183.600,192.200 183.600 C 191.870 183.600,191.600 183.849,191.600 184.153 C 191.600 184.458,191.240 184.801,190.800 184.916 C 190.217 185.068,190.000 185.462,190.000 186.363 C 190.000 187.196,189.804 187.600,189.400 187.600 C 189.070 187.600,188.800 187.870,188.800 188.200 C 188.800 188.530,188.530 188.800,188.200 188.800 C 187.785 188.800,187.600 189.217,187.600 190.153 C 187.600 191.170,187.401 191.559,186.800 191.716 C 186.271 191.854,186.000 192.262,186.000 192.920 C 186.000 193.467,185.730 194.018,185.400 194.145 C 185.049 194.279,184.800 194.879,184.800 195.587 C 184.800 196.399,184.601 196.800,184.200 196.800 C 183.789 196.800,183.600 197.212,183.600 198.111 C 183.600 198.927,183.298 199.681,182.800 200.107 C 182.282 200.551,182.000 201.287,182.000 202.196 C 182.000 203.177,181.819 203.600,181.400 203.600 C 180.985 203.600,180.800 204.017,180.800 204.957 C 180.800 205.795,180.570 206.403,180.200 206.545 C 179.808 206.695,179.600 207.318,179.600 208.341 C 179.600 209.570,179.428 209.952,178.800 210.116 C 178.217 210.268,178.000 210.662,178.000 211.563 C 178.000 212.870,177.080 213.306,176.655 212.200 C 176.529 211.870,176.170 211.600,175.859 211.600 C 175.548 211.600,175.199 211.240,175.084 210.800 C 174.816 209.773,171.607 209.650,170.629 210.629 C 169.092 212.166,171.163 216.800,173.387 216.800 C 173.821 216.800,174.000 217.209,174.000 218.200 C 174.000 219.184,173.820 219.600,173.394 219.600 C 172.962 219.600,172.814 219.957,172.881 220.835 C 172.944 221.658,172.746 222.198,172.288 222.455 C 171.830 222.711,171.600 223.336,171.600 224.324 C 171.600 225.374,171.366 225.953,170.800 226.307 C 170.302 226.618,170.000 227.240,170.000 227.954 C 170.000 228.586,169.730 229.326,169.400 229.600 C 169.070 229.874,168.800 230.436,168.800 230.849 C 168.800 231.262,168.530 231.600,168.200 231.600 C 167.870 231.600,167.600 231.830,167.600 232.111 C 167.600 232.392,167.240 232.930,166.800 233.307 C 166.218 233.806,166.000 234.487,166.000 235.809 C 166.000 237.054,165.811 237.697,165.400 237.855 C 165.030 237.997,164.800 238.605,164.800 239.443 C 164.800 240.383,164.615 240.800,164.200 240.800 C 163.870 240.800,163.600 241.070,163.600 241.400 C 163.600 241.733,163.244 242.000,162.800 242.000 C 162.267 242.000,162.000 242.267,162.000 242.800 C 162.000 243.244,161.733 243.600,161.400 243.600 C 161.070 243.600,160.800 243.313,160.800 242.963 C 160.800 242.612,160.440 242.231,160.000 242.116 C 159.560 242.001,159.200 241.658,159.200 241.353 C 159.200 240.688,156.585 240.577,156.185 241.225 C 156.040 241.458,155.490 241.814,154.961 242.015 C 154.433 242.216,154.000 242.655,154.000 242.990 C 154.000 243.401,153.609 243.600,152.800 243.600 C 152.000 243.600,151.600 243.800,151.600 244.200 C 151.600 244.530,151.497 244.800,151.371 244.800 C 151.246 244.800,150.873 244.530,150.543 244.200 C 150.213 243.870,149.596 243.600,149.171 243.600 C 148.747 243.600,148.400 243.364,148.400 243.075 C 148.400 242.431,146.262 240.800,145.416 240.800 C 145.077 240.800,144.800 240.530,144.800 240.200 C 144.800 239.867,144.444 239.600,144.000 239.600 C 143.236 239.600,143.200 239.333,143.200 233.622 L 143.200 227.645 144.598 226.122 C 145.367 225.285,145.997 224.285,145.998 223.900 C 145.999 223.515,146.270 223.200,146.600 223.200 C 147.072 223.200,147.200 222.644,147.200 220.600 C 147.200 218.653,147.339 218.000,147.753 218.000 C 148.738 218.000,148.789 216.581,148.795 189.133 C 148.800 161.811,148.763 160.800,147.757 160.800 C 147.212 160.800,147.012 159.363,147.188 156.700 C 147.238 155.935,147.068 155.600,146.630 155.600 C 146.284 155.600,145.998 155.375,145.995 155.100 C 145.992 154.825,145.889 154.150,145.767 153.600 C 145.577 152.747,145.611 152.703,145.992 153.300 C 146.253 153.707,146.933 154.000,147.620 154.000 C 148.402 154.000,148.800 154.202,148.800 154.600 C 148.800 154.930,149.070 155.200,149.400 155.200 C 149.730 155.200,150.000 155.374,150.000 155.586 C 150.000 156.539,151.579 156.833,152.283 156.011 C 152.665 155.565,153.208 155.200,153.489 155.200 C 153.770 155.200,154.000 154.930,154.000 154.600 C 154.000 154.270,154.270 154.000,154.600 154.000 C 155.000 154.000,155.200 153.600,155.200 152.800 C 155.200 152.000,155.000 151.600,154.600 151.600 C 154.267 151.600,154.000 151.244,154.000 150.800 C 154.000 150.356,153.733 150.000,153.400 150.000 C 153.070 150.000,152.800 149.730,152.800 149.400 C 152.800 149.067,152.444 148.800,152.000 148.800 C 151.307 148.800,151.200 148.533,151.200 146.800 C 151.200 144.506,152.148 143.200,153.813 143.200 C 154.369 143.200,154.929 142.930,155.055 142.600 C 155.217 142.180,155.872 142.000,157.243 142.000 C 158.822 142.000,159.209 141.865,159.246 141.300 C 159.291 140.633,159.302 140.633,159.476 141.300 C 159.576 141.685,159.915 142.000,160.229 142.000 M347.600 142.800 C 347.600 143.377,347.349 143.587,346.700 143.554 C 346.023 143.519,345.973 143.462,346.500 143.324 C 346.885 143.224,347.200 142.885,347.200 142.571 C 347.200 142.257,347.290 142.000,347.400 142.000 C 347.510 142.000,347.600 142.360,347.600 142.800 M103.020 150.000 C 103.412 150.000,103.600 150.437,103.600 151.351 C 103.600 152.094,103.860 152.918,104.178 153.181 C 104.495 153.445,104.810 154.322,104.878 155.130 C 104.999 156.586,105.018 156.601,106.953 156.724 C 108.027 156.792,109.164 157.107,109.481 157.424 C 109.827 157.770,110.846 158.000,112.029 158.000 C 113.514 158.000,114.000 158.148,114.000 158.600 C 114.000 158.930,114.301 159.200,114.669 159.200 C 116.768 159.200,116.800 159.430,116.800 174.662 L 116.800 188.800 114.843 188.800 C 113.472 188.800,112.817 188.620,112.655 188.200 C 112.494 187.779,111.838 187.600,110.459 187.600 C 108.830 187.600,108.458 187.463,108.284 186.800 C 108.108 186.125,107.738 186.000,105.926 186.000 C 104.235 186.000,103.653 186.171,103.200 186.800 C 102.798 187.357,102.165 187.600,101.112 187.600 C 100.035 187.600,99.600 187.773,99.600 188.200 C 99.600 188.645,99.132 188.800,97.787 188.800 C 96.545 188.800,95.902 188.989,95.745 189.400 C 95.556 189.892,94.549 190.000,90.145 190.000 C 85.741 190.000,84.733 189.892,84.545 189.400 C 84.418 189.070,84.064 188.800,83.757 188.800 C 83.291 188.800,83.200 186.471,83.200 174.600 C 83.200 162.244,83.278 160.400,83.800 160.400 C 84.130 160.400,84.400 160.170,84.400 159.889 C 84.400 159.015,85.893 157.945,86.156 158.631 C 86.279 158.950,86.908 159.200,87.587 159.200 C 88.254 159.200,88.800 159.372,88.800 159.582 C 88.800 159.792,89.258 160.422,89.818 160.982 C 90.378 161.542,91.008 162.000,91.218 162.000 C 91.428 162.000,91.600 162.270,91.600 162.600 C 91.600 162.930,91.870 163.200,92.200 163.200 C 92.530 163.200,92.803 163.425,92.807 163.700 C 92.818 164.488,94.626 166.000,95.556 166.000 C 96.040 166.000,96.400 165.744,96.400 165.400 C 96.400 165.067,96.756 164.800,97.200 164.800 C 98.181 164.800,98.382 161.239,97.453 160.310 C 97.152 160.009,96.780 159.366,96.626 158.881 C 96.472 158.397,96.088 158.000,95.773 158.000 C 95.406 158.000,95.200 157.579,95.200 156.829 C 95.200 156.051,94.966 155.597,94.500 155.476 C 94.115 155.375,94.745 155.272,95.900 155.246 L 98.000 155.200 98.000 153.200 C 98.000 151.689,98.147 151.200,98.600 151.200 C 98.930 151.200,99.200 150.930,99.200 150.600 C 99.200 150.270,99.553 150.000,99.984 150.000 C 100.416 150.000,101.001 149.749,101.284 149.441 C 101.726 148.963,101.846 148.963,102.120 149.441 C 102.296 149.749,102.701 150.000,103.020 150.000 M211.600 153.353 C 211.600 153.658,211.240 154.001,210.800 154.116 C 210.333 154.238,210.000 154.662,210.000 155.134 C 210.000 155.579,209.730 156.213,209.400 156.543 C 209.042 156.901,208.800 157.879,208.800 158.971 C 208.800 160.296,208.641 160.800,208.224 160.800 C 207.853 160.800,207.592 161.334,207.491 162.300 C 207.405 163.125,207.304 161.865,207.267 159.500 C 207.211 155.915,207.300 155.200,207.800 155.200 C 208.200 155.200,208.400 154.800,208.400 154.000 C 208.400 152.867,208.489 152.800,210.000 152.800 C 211.096 152.800,211.600 152.974,211.600 153.353 M312.325 159.329 C 312.696 159.427,312.280 159.507,311.400 159.507 C 310.520 159.507,310.115 159.425,310.500 159.324 C 310.885 159.224,311.221 158.840,311.246 158.471 C 311.289 157.848,311.306 157.849,311.471 158.475 C 311.569 158.847,311.953 159.231,312.325 159.329 M98.145 206.600 C 98.279 206.951,98.879 207.200,99.587 207.200 L 100.800 207.200 100.800 210.600 L 100.800 214.000 103.400 214.000 L 106.000 214.000 106.000 212.187 C 106.000 210.945,106.189 210.302,106.600 210.145 C 106.970 210.003,107.200 209.395,107.200 208.557 C 107.200 207.664,107.390 207.200,107.757 207.200 C 108.064 207.200,108.418 206.930,108.545 206.600 C 108.734 206.108,109.745 206.000,114.187 206.000 L 119.600 206.000 119.600 209.353 C 119.600 212.370,119.520 212.728,118.800 212.916 C 118.042 213.114,118.000 213.462,118.000 219.591 C 118.000 224.805,117.884 226.173,117.400 226.657 C 116.934 227.123,116.800 228.321,116.800 232.029 L 116.800 236.800 111.787 236.800 C 107.701 236.800,106.732 236.911,106.545 237.400 C 106.137 238.461,104.866 238.112,104.727 236.900 C 104.574 235.575,99.600 234.877,99.600 236.181 C 99.600 236.649,99.157 236.800,97.787 236.800 C 96.545 236.800,95.902 236.989,95.745 237.400 C 95.618 237.730,95.174 238.000,94.757 238.000 C 94.341 238.000,94.000 237.730,94.000 237.400 C 94.000 237.070,93.730 236.800,93.400 236.800 C 92.928 236.800,92.800 236.242,92.800 234.174 C 92.800 230.462,92.466 230.000,89.786 230.000 L 87.600 230.000 87.600 233.200 C 87.600 235.867,87.467 236.533,86.800 237.200 C 86.178 237.822,86.000 237.867,86.000 237.400 C 86.000 237.070,85.730 236.800,85.400 236.800 C 85.067 236.800,84.800 236.444,84.800 236.000 C 84.800 235.560,84.454 234.854,84.030 234.430 C 83.124 233.524,83.119 233.422,83.166 218.900 C 83.195 209.848,83.283 208.400,83.800 208.400 C 84.130 208.400,84.400 208.130,84.400 207.800 C 84.400 207.381,84.822 207.200,85.800 207.200 C 86.778 207.200,87.200 207.019,87.200 206.600 C 87.200 206.097,88.062 206.000,92.557 206.000 C 96.950 206.000,97.956 206.108,98.145 206.600 M55.600 260.753 C 55.600 263.170,55.502 263.532,54.800 263.716 C 54.164 263.882,54.000 263.728,54.000 262.963 C 54.000 262.374,54.233 262.000,54.600 262.000 C 55.053 262.000,55.200 261.511,55.200 260.000 C 55.200 258.900,55.290 258.000,55.400 258.000 C 55.510 258.000,55.600 259.239,55.600 260.753 " stroke="none" fill="#5c5cb4" fill-rule="evenodd"></path><path id="path1" d="" stroke="none" fill="#605cb4" fill-rule="evenodd"></path><path id="path2" d="" stroke="none" fill="#605cb4" fill-rule="evenodd"></path><path id="path3" d="" stroke="none" fill="#605cb4" fill-rule="evenodd"></path><path id="path4" d="" stroke="none" fill="#605cb4" fill-rule="evenodd"></path></g></svg>