<svg id="svg" version="1.1" width="400" height="400" viewBox="0 0 400 400" xmlns="http://www.w3.org/2000/svg" xmlns:xlink="http://www.w3.org/1999/xlink" ><g id="svgg"><path id="path0" d="M206.800 57.400 C 206.526 57.730,205.964 58.000,205.551 58.000 C 205.067 58.000,204.800 58.284,204.800 58.800 C 204.800 59.615,204.497 59.745,202.900 59.616 C 202.318 59.568,202.000 59.765,202.000 60.171 C 202.000 60.517,201.730 60.800,201.400 60.800 C 201.070 60.800,200.800 61.058,200.800 61.373 C 200.800 61.697,200.334 62.002,199.730 62.073 C 198.711 62.194,197.561 63.528,196.949 65.300 C 196.816 65.685,196.458 66.000,196.153 66.000 C 195.849 66.000,195.600 66.339,195.600 66.753 C 195.600 67.170,195.243 67.600,194.800 67.716 C 194.259 67.857,194.000 68.262,194.000 68.963 C 194.000 69.618,193.779 70.000,193.400 70.000 C 193.070 70.000,192.800 70.270,192.800 70.600 C 192.800 70.930,193.002 71.155,193.250 71.100 C 193.498 71.045,193.783 71.225,193.883 71.500 C 194.001 71.821,193.839 71.913,193.433 71.757 C 193.085 71.624,192.800 71.699,192.800 71.924 C 192.800 72.149,193.025 72.424,193.300 72.535 C 193.575 72.646,193.291 72.751,192.670 72.768 C 191.693 72.796,191.550 72.949,191.612 73.900 C 191.730 75.681,191.554 77.842,191.335 77.300 C 190.725 75.787,189.978 76.892,190.048 79.207 C 190.139 82.245,190.628 81.999,184.292 82.107 C 181.307 82.158,178.939 82.127,179.029 82.037 C 180.438 80.634,160.673 80.067,159.127 81.466 C 158.549 81.989,157.665 82.118,154.993 82.069 C 152.081 82.014,151.481 82.119,150.797 82.803 C 150.219 83.381,149.464 83.600,148.047 83.600 C 146.399 83.600,146.059 83.731,145.874 84.440 C 145.747 84.925,145.466 85.164,145.209 85.006 C 144.547 84.597,143.600 85.564,143.600 86.649 C 143.600 87.333,143.376 87.600,142.800 87.600 C 142.119 87.600,142.000 87.867,142.000 89.400 C 142.000 90.933,142.119 91.200,142.800 91.200 C 143.333 91.200,143.600 91.467,143.600 92.000 C 143.600 92.444,143.867 92.800,144.200 92.800 C 144.530 92.800,144.800 93.070,144.800 93.400 C 144.800 93.730,145.070 94.000,145.400 94.000 C 145.730 94.000,146.000 94.270,146.000 94.600 C 146.000 95.019,146.422 95.200,147.400 95.200 C 148.533 95.200,148.800 95.352,148.800 96.000 C 148.800 96.648,149.067 96.800,150.200 96.800 C 151.178 96.800,151.600 96.981,151.600 97.400 C 151.600 97.800,152.000 98.000,152.800 98.000 C 153.733 98.000,154.000 98.178,154.000 98.800 C 154.000 99.244,153.733 99.600,153.400 99.600 C 153.070 99.600,152.800 99.870,152.800 100.200 C 152.800 100.530,152.585 100.800,152.322 100.800 C 151.538 100.800,148.800 102.864,148.800 103.454 C 148.800 103.754,148.623 104.000,148.408 104.000 C 148.192 104.000,147.902 104.450,147.764 105.000 C 147.607 105.626,147.230 106.000,146.757 106.000 C 146.267 106.000,146.000 106.282,146.000 106.800 C 146.000 107.244,145.733 107.600,145.400 107.600 C 145.070 107.600,144.800 107.870,144.800 108.200 C 144.800 108.530,144.530 108.800,144.200 108.800 C 143.870 108.800,143.600 109.070,143.600 109.400 C 143.600 109.730,143.326 110.000,142.990 110.000 C 142.655 110.000,142.216 110.433,142.015 110.961 C 141.814 111.490,141.458 112.040,141.225 112.185 C 140.991 112.329,140.800 112.797,140.800 113.224 C 140.800 113.651,140.530 114.000,140.200 114.000 C 139.870 114.000,139.600 114.339,139.600 114.753 C 139.600 115.170,139.243 115.600,138.800 115.716 C 138.259 115.857,138.000 116.262,138.000 116.963 C 138.000 117.618,137.779 118.000,137.400 118.000 C 136.981 118.000,136.800 118.422,136.800 119.400 C 136.800 120.378,136.619 120.800,136.200 120.800 C 135.870 120.800,135.600 121.030,135.600 121.311 C 135.600 121.592,135.240 122.130,134.800 122.507 C 133.904 123.274,133.737 124.627,134.500 124.935 C 134.775 125.046,134.595 125.151,134.100 125.168 C 133.605 125.186,133.173 125.425,133.139 125.700 C 133.106 125.975,133.036 126.380,132.985 126.600 C 132.934 126.820,132.872 127.392,132.846 127.871 C 132.821 128.351,132.527 129.016,132.193 129.350 C 131.859 129.684,131.610 130.102,131.640 130.279 C 131.780 131.105,131.536 131.523,130.800 131.716 C 130.313 131.843,130.000 132.262,130.000 132.786 C 130.000 133.369,130.162 133.550,130.500 133.347 C 130.882 133.118,130.878 133.197,130.486 133.681 C 130.203 134.030,130.000 134.470,130.033 134.658 C 130.231 135.761,129.924 136.800,129.400 136.800 C 128.949 136.800,128.800 137.283,128.800 138.751 C 128.800 139.997,128.583 140.882,128.200 141.200 C 127.749 141.574,127.600 142.580,127.600 145.249 C 127.600 148.018,127.477 148.800,127.043 148.800 C 126.115 148.800,125.974 149.861,126.021 156.467 C 126.055 161.168,126.187 162.738,126.533 162.544 C 126.835 162.375,126.823 162.473,126.500 162.821 C 125.690 163.694,125.875 166.816,126.795 167.795 C 127.446 168.487,127.600 169.241,127.639 171.921 C 127.675 174.433,127.817 175.200,128.243 175.200 C 128.661 175.200,128.800 175.839,128.800 177.753 C 128.800 179.900,128.918 180.337,129.539 180.500 C 130.098 180.646,130.236 180.974,130.107 181.855 C 129.986 182.676,130.180 183.239,130.768 183.771 C 131.295 184.248,131.600 185.015,131.600 185.862 C 131.600 186.785,131.786 187.200,132.200 187.200 C 132.821 187.200,132.940 187.566,132.816 189.100 C 132.768 189.682,132.965 190.000,133.371 190.000 C 133.773 190.000,134.000 190.356,134.000 190.986 C 134.000 191.562,134.332 192.150,134.800 192.400 C 135.240 192.635,135.600 193.092,135.600 193.414 C 135.600 193.736,135.825 194.006,136.100 194.013 C 136.375 194.019,136.952 194.514,137.381 195.113 C 137.997 195.969,138.018 196.083,137.481 195.651 C 136.893 195.177,136.800 195.192,136.800 195.764 C 136.800 196.127,137.070 196.529,137.400 196.655 C 137.730 196.782,138.000 197.136,138.000 197.443 C 138.000 197.749,138.360 198.000,138.800 198.000 C 139.422 198.000,139.600 198.267,139.600 199.200 C 139.600 200.000,139.800 200.400,140.200 200.400 C 140.544 200.400,140.800 200.761,140.800 201.247 C 140.800 201.877,140.991 202.043,141.549 201.897 C 142.126 201.747,142.253 201.874,142.103 202.451 C 141.957 203.009,142.123 203.200,142.753 203.200 C 143.333 203.200,143.600 203.452,143.600 204.000 C 143.600 204.444,143.867 204.800,144.200 204.800 C 144.530 204.800,144.800 205.070,144.800 205.400 C 144.800 205.730,145.070 206.000,145.400 206.000 C 145.730 206.000,146.000 206.270,146.000 206.600 C 146.000 206.933,146.356 207.200,146.800 207.200 C 147.333 207.200,147.600 207.467,147.600 208.000 C 147.600 208.444,147.867 208.800,148.200 208.800 C 148.530 208.800,148.800 209.070,148.800 209.400 C 148.800 209.730,149.051 210.000,149.357 210.000 C 149.664 210.000,150.018 210.270,150.145 210.600 C 150.271 210.930,150.697 211.200,151.091 211.200 C 151.485 211.200,152.032 211.560,152.307 212.000 C 152.582 212.440,153.056 212.800,153.361 212.800 C 153.665 212.800,154.018 213.070,154.145 213.400 C 154.271 213.730,154.719 214.000,155.138 214.000 C 155.558 214.000,156.126 214.270,156.400 214.600 C 156.674 214.930,157.056 215.200,157.249 215.200 C 157.442 215.200,157.960 215.560,158.400 216.000 C 158.840 216.440,159.541 216.800,159.957 216.800 C 160.374 216.800,160.818 217.070,160.945 217.400 C 161.079 217.751,161.679 218.000,162.387 218.000 C 163.199 218.000,163.600 218.199,163.600 218.600 C 163.600 219.046,164.071 219.200,165.437 219.200 C 166.938 219.200,167.313 219.346,167.484 220.000 C 167.630 220.558,168.030 220.800,168.804 220.800 C 169.446 220.800,170.016 221.066,170.156 221.430 C 170.306 221.822,170.815 222.033,171.499 221.988 C 173.464 221.858,174.000 221.989,174.000 222.600 C 174.000 223.053,174.487 223.200,175.980 223.200 C 177.449 223.200,178.061 223.381,178.351 223.899 C 178.724 224.565,179.366 224.664,184.100 224.782 C 184.485 224.792,184.800 225.064,184.800 225.387 C 184.800 226.283,214.853 226.300,215.597 225.404 C 215.950 224.978,216.879 224.798,218.749 224.795 C 221.941 224.788,223.200 224.493,223.200 223.753 C 223.200 223.356,223.764 223.200,225.200 223.200 C 226.711 223.200,227.200 223.053,227.200 222.600 C 227.200 222.184,227.619 222.000,228.567 222.000 C 230.276 222.000,231.200 221.658,231.200 221.026 C 231.200 220.710,231.630 220.602,232.425 220.718 C 233.417 220.864,233.691 220.737,233.871 220.049 C 234.042 219.395,234.404 219.200,235.447 219.200 C 236.383 219.200,236.800 219.015,236.800 218.600 C 236.800 218.200,237.200 218.000,238.000 218.000 C 238.800 218.000,239.200 217.800,239.200 217.400 C 239.200 217.070,239.545 216.800,239.967 216.800 C 241.159 216.800,242.000 216.369,242.000 215.757 C 242.000 215.451,242.135 215.186,242.300 215.169 C 244.170 214.979,244.826 214.516,243.988 213.979 C 243.587 213.721,243.812 213.680,244.700 213.851 C 245.766 214.055,246.000 213.974,246.000 213.401 C 246.000 212.793,245.909 212.773,245.300 213.251 C 244.675 213.741,244.655 213.729,245.115 213.141 C 245.402 212.774,245.960 212.569,246.378 212.678 C 246.813 212.792,247.476 212.524,247.963 212.037 C 248.423 211.577,249.091 211.200,249.447 211.200 C 249.882 211.200,250.029 210.955,249.897 210.451 C 249.747 209.874,249.874 209.747,250.451 209.897 C 250.937 210.025,251.200 209.883,251.200 209.493 C 251.200 209.163,251.560 208.799,252.000 208.684 C 252.440 208.569,252.800 208.188,252.800 207.837 C 252.800 207.487,253.070 207.200,253.400 207.200 C 253.730 207.200,254.000 206.930,254.000 206.600 C 254.000 206.270,254.281 206.000,254.624 206.000 C 254.967 206.000,255.149 205.841,255.029 205.647 C 254.683 205.087,256.379 203.200,257.229 203.200 C 257.653 203.200,258.000 202.930,258.000 202.600 C 258.000 202.270,258.270 202.000,258.600 202.000 C 258.930 202.000,259.200 201.730,259.200 201.400 C 259.200 201.070,259.476 200.800,259.813 200.800 C 260.149 200.800,260.541 200.485,260.682 200.100 C 260.824 199.715,261.178 199.256,261.470 199.080 C 261.761 198.904,262.000 198.319,262.000 197.780 C 262.000 197.176,262.230 196.800,262.600 196.800 C 262.933 196.800,263.200 196.444,263.200 196.000 C 263.200 195.560,263.456 195.200,263.768 195.200 C 264.081 195.200,264.452 194.675,264.593 194.033 C 264.734 193.392,265.108 192.767,265.424 192.646 C 265.773 192.512,266.000 191.874,266.000 191.025 C 266.000 189.945,266.137 189.678,266.600 189.855 C 267.063 190.033,267.200 189.766,267.200 188.689 C 267.200 187.602,267.388 187.244,268.051 187.071 C 268.718 186.896,268.859 186.623,268.704 185.810 C 268.562 185.069,268.719 184.657,269.253 184.372 C 269.791 184.084,270.000 183.525,270.000 182.373 C 270.000 181.291,270.202 180.697,270.627 180.534 C 271.055 180.370,271.233 179.836,271.188 178.847 C 271.054 175.884,271.180 175.298,272.000 175.084 C 272.712 174.898,272.800 174.538,272.800 171.809 C 272.800 169.718,272.978 168.565,273.358 168.184 C 274.180 167.363,274.256 149.386,273.440 148.919 C 273.050 148.695,272.841 147.543,272.742 145.068 C 272.630 142.276,272.453 141.428,271.900 141.024 C 271.407 140.664,271.200 139.962,271.200 138.656 C 271.200 137.273,271.047 136.800,270.600 136.800 C 270.149 136.800,270.000 136.317,270.000 134.849 C 270.000 133.603,269.783 132.718,269.400 132.400 C 269.070 132.126,268.800 131.305,268.800 130.575 C 268.800 129.118,268.111 128.380,267.561 129.249 C 267.217 129.793,267.007 128.394,267.179 126.700 C 267.220 126.302,266.981 126.000,266.625 126.000 C 266.162 126.000,266.000 125.583,266.000 124.387 C 266.000 123.323,265.796 122.697,265.400 122.545 C 265.070 122.418,264.800 121.974,264.800 121.557 C 264.800 121.067,264.518 120.800,264.000 120.800 C 263.185 120.800,263.055 120.497,263.184 118.900 C 263.232 118.318,263.035 118.000,262.629 118.000 C 262.223 118.000,262.000 117.641,262.000 116.987 C 262.000 116.431,261.748 115.878,261.439 115.760 C 261.131 115.641,260.788 115.197,260.677 114.772 C 260.566 114.348,260.188 114.000,259.837 114.000 C 259.473 114.000,259.200 113.667,259.200 113.224 C 259.200 112.797,259.009 112.329,258.775 112.185 C 258.542 112.040,258.179 111.471,257.970 110.920 C 257.727 110.281,257.378 109.999,257.007 110.142 C 256.687 110.265,256.302 110.165,256.151 109.921 C 255.985 109.652,256.059 109.589,256.338 109.762 C 256.612 109.931,256.800 109.793,256.800 109.424 C 256.800 109.067,256.458 108.800,256.000 108.800 C 255.520 108.800,255.200 108.533,255.200 108.133 C 255.200 107.767,255.082 107.585,254.937 107.730 C 254.488 108.179,253.634 107.177,253.892 106.505 C 254.060 106.067,253.982 105.964,253.641 106.175 C 253.322 106.372,253.068 106.181,252.926 105.640 C 252.801 105.162,252.382 104.800,251.953 104.800 C 251.539 104.800,251.200 104.601,251.200 104.358 C 251.200 103.517,248.730 100.800,247.966 100.800 C 247.545 100.800,247.200 100.530,247.200 100.200 C 247.200 99.870,246.951 99.600,246.647 99.600 C 245.146 99.600,245.646 97.227,247.300 96.500 C 247.905 96.235,248.400 95.833,248.400 95.609 C 248.400 95.384,248.760 95.200,249.200 95.200 C 249.644 95.200,250.000 94.933,250.000 94.600 C 250.000 94.270,250.289 94.000,250.643 94.000 C 251.037 94.000,251.200 93.778,251.065 93.425 C 250.921 93.049,251.148 92.807,251.722 92.725 C 253.000 92.543,253.237 86.439,251.979 86.110 C 251.551 85.998,251.200 85.658,251.200 85.353 C 251.200 85.004,250.753 84.800,249.987 84.800 C 249.279 84.800,248.679 84.551,248.545 84.200 C 248.376 83.761,247.684 83.600,245.957 83.600 C 244.129 83.600,243.419 83.419,242.795 82.795 C 242.019 82.019,241.502 81.992,227.895 82.016 C 209.680 82.049,211.200 82.106,211.200 81.400 C 211.200 81.070,211.560 80.440,212.000 80.000 C 212.440 79.560,212.800 78.930,212.800 78.600 C 212.800 78.270,213.070 78.000,213.400 78.000 C 213.730 78.000,214.000 77.749,214.000 77.443 C 214.000 77.136,214.270 76.782,214.600 76.655 C 214.930 76.529,215.200 76.139,215.200 75.789 C 215.200 75.386,215.016 75.263,214.700 75.453 C 214.360 75.657,214.376 75.537,214.749 75.077 C 215.343 74.344,215.802 74.149,215.400 74.800 C 215.264 75.020,215.439 75.200,215.789 75.200 C 216.139 75.200,216.529 74.930,216.655 74.600 C 216.782 74.270,217.136 74.000,217.443 74.000 C 217.749 74.000,218.000 73.730,218.000 73.400 C 218.000 73.070,218.289 72.800,218.643 72.800 C 219.056 72.800,219.202 72.581,219.050 72.187 C 218.894 71.780,219.148 71.448,219.808 71.197 C 220.610 70.892,220.800 70.545,220.800 69.384 C 220.800 67.659,220.131 66.264,219.432 66.532 C 219.082 66.667,218.982 66.428,219.109 65.763 C 219.298 64.774,218.626 64.405,218.265 65.300 C 218.154 65.575,218.049 65.305,218.032 64.700 C 218.012 64.003,217.780 63.600,217.400 63.600 C 217.070 63.600,216.800 63.313,216.800 62.963 C 216.800 62.612,216.440 62.231,216.000 62.116 C 215.560 62.001,215.200 61.658,215.200 61.353 C 215.200 61.049,214.930 60.800,214.600 60.800 C 214.270 60.800,214.000 60.530,214.000 60.200 C 214.000 59.870,213.751 59.600,213.447 59.600 C 213.142 59.600,212.799 59.240,212.684 58.800 C 212.569 58.360,212.188 58.000,211.837 58.000 C 211.487 58.000,211.200 57.730,211.200 57.400 C 211.200 56.949,210.717 56.800,209.249 56.800 C 208.003 56.800,207.118 57.017,206.800 57.400 M208.800 68.600 C 208.800 69.578,208.619 70.000,208.200 70.000 C 207.867 70.000,207.600 70.356,207.600 70.800 C 207.600 71.333,207.333 71.600,206.800 71.600 C 206.356 71.600,206.000 71.867,206.000 72.200 C 206.000 72.530,205.730 72.800,205.400 72.800 C 205.070 72.800,204.800 73.141,204.800 73.557 C 204.800 73.974,204.510 74.426,204.155 74.562 C 203.711 74.732,203.562 75.159,203.676 75.934 C 203.821 76.926,203.732 77.038,202.920 76.883 C 202.207 76.746,202.000 76.887,202.000 77.511 C 202.000 77.953,201.730 78.418,201.400 78.545 C 201.070 78.671,200.800 79.209,200.800 79.738 C 200.800 80.268,200.523 80.932,200.185 81.212 C 199.847 81.493,199.598 82.010,199.631 82.361 C 199.800 84.138,199.575 84.800,198.800 84.800 C 198.267 84.800,198.000 84.533,198.000 84.000 C 198.000 83.538,198.267 83.200,198.631 83.200 C 199.090 83.200,199.242 82.847,199.190 81.900 C 199.025 78.891,199.185 78.097,200.000 77.884 C 200.583 77.732,200.800 77.338,200.800 76.437 C 200.800 75.604,200.996 75.200,201.400 75.200 C 201.730 75.200,202.000 74.862,202.000 74.449 C 202.000 74.036,202.278 73.467,202.618 73.185 C 202.958 72.903,203.142 72.425,203.026 72.123 C 202.899 71.792,203.209 71.425,203.808 71.197 C 204.353 70.990,204.800 70.635,204.800 70.410 C 204.800 70.184,205.070 70.000,205.400 70.000 C 205.730 70.000,206.000 69.730,206.000 69.400 C 206.000 69.070,206.270 68.800,206.600 68.800 C 206.933 68.800,207.200 68.444,207.200 68.000 C 207.200 67.467,207.467 67.200,208.000 67.200 C 208.648 67.200,208.800 67.467,208.800 68.600 M182.518 90.624 C 182.907 91.320,184.400 91.395,184.400 90.720 C 184.400 90.347,184.507 90.347,184.880 90.720 C 185.542 91.382,187.740 91.365,187.365 90.700 C 187.139 90.300,187.190 90.300,187.621 90.700 C 187.970 91.024,189.442 91.200,191.800 91.200 C 194.158 91.200,195.630 91.024,195.979 90.700 C 196.416 90.294,196.458 90.312,196.200 90.800 C 196.025 91.130,196.255 91.017,196.711 90.550 C 197.628 89.608,199.600 89.674,199.600 90.647 C 199.600 91.499,211.862 91.449,212.808 90.592 C 213.412 90.047,222.570 89.810,236.100 89.991 C 236.530 89.996,236.800 90.308,236.800 90.800 C 236.800 91.512,236.533 91.600,234.387 91.600 C 232.612 91.600,231.914 91.758,231.745 92.200 C 231.567 92.663,230.797 92.800,228.377 92.800 C 225.908 92.800,225.163 92.937,224.879 93.445 C 224.592 93.958,223.887 94.080,221.422 94.043 C 218.639 94.001,218.305 94.077,218.116 94.798 C 217.968 95.367,217.571 95.600,216.753 95.600 C 215.526 95.600,214.890 98.355,216.100 98.432 C 216.500 98.457,216.500 98.504,216.100 98.665 C 215.352 98.967,215.443 102.000,216.200 102.000 C 216.530 102.000,216.803 102.315,216.806 102.700 C 216.811 103.241,216.890 103.278,217.154 102.861 C 217.404 102.466,217.610 102.653,217.927 103.561 C 218.164 104.243,218.638 104.800,218.979 104.800 C 219.321 104.800,219.600 105.070,219.600 105.400 C 219.600 105.730,219.870 106.000,220.200 106.000 C 220.530 106.000,220.800 106.270,220.800 106.600 C 220.800 106.930,221.070 107.200,221.400 107.200 C 221.730 107.200,222.000 107.483,222.000 107.829 C 222.000 108.607,223.071 109.727,223.539 109.438 C 223.729 109.320,223.799 109.669,223.696 110.212 C 223.558 110.933,223.681 111.200,224.153 111.200 C 224.509 111.200,224.800 111.476,224.800 111.813 C 224.800 112.149,225.070 112.529,225.400 112.655 C 225.730 112.782,226.000 113.136,226.000 113.443 C 226.000 113.749,226.360 114.000,226.800 114.000 C 227.422 114.000,227.600 114.267,227.600 115.200 C 227.600 116.000,227.800 116.400,228.200 116.400 C 228.533 116.400,228.800 116.756,228.800 117.200 C 228.800 117.644,229.067 118.000,229.400 118.000 C 229.730 118.000,230.000 118.165,230.000 118.367 C 230.000 118.569,230.112 119.064,230.248 119.467 C 230.412 119.949,230.142 119.807,229.462 119.053 C 228.640 118.143,228.198 117.954,227.313 118.137 C 226.701 118.264,226.433 118.268,226.717 118.145 C 227.426 117.839,226.558 116.800,225.594 116.800 C 225.204 116.800,224.782 116.530,224.655 116.200 C 224.521 115.849,223.921 115.600,223.213 115.600 C 222.267 115.600,222.000 115.424,222.000 114.800 C 222.000 114.348,221.733 114.000,221.387 114.000 C 221.051 114.000,220.671 113.730,220.545 113.400 C 220.413 113.058,219.817 112.800,219.157 112.800 C 218.395 112.800,218.000 112.595,218.000 112.200 C 218.000 111.870,217.742 111.600,217.427 111.600 C 217.112 111.600,216.740 111.240,216.600 110.800 C 216.460 110.360,216.075 110.000,215.744 110.000 C 215.414 110.000,214.871 109.728,214.539 109.396 C 214.207 109.064,213.758 108.902,213.541 109.037 C 213.324 109.171,213.047 108.902,212.926 108.440 C 212.801 107.962,212.382 107.600,211.953 107.600 C 211.467 107.600,211.200 107.317,211.200 106.800 C 211.200 106.360,210.949 106.000,210.643 106.000 C 210.336 106.000,209.982 105.730,209.855 105.400 C 209.729 105.070,209.371 104.800,209.062 104.800 C 208.752 104.800,208.274 104.530,208.000 104.200 C 207.726 103.870,207.062 103.600,206.524 103.600 C 205.706 103.600,205.591 103.460,205.819 102.741 C 206.046 102.026,205.959 101.917,205.296 102.091 C 204.672 102.254,204.543 102.138,204.697 101.549 C 204.843 100.991,204.677 100.800,204.047 100.800 C 203.561 100.800,203.200 100.544,203.200 100.200 C 203.200 99.870,202.951 99.600,202.647 99.600 C 202.342 99.600,201.998 99.237,201.882 98.793 C 201.571 97.602,194.417 97.648,194.105 98.843 C 193.996 99.259,193.658 99.600,193.353 99.600 C 193.049 99.600,192.800 99.954,192.800 100.387 C 192.800 100.889,192.602 101.099,192.253 100.965 C 191.928 100.840,191.618 101.090,191.490 101.579 C 191.335 102.172,191.076 102.327,190.568 102.132 C 190.018 101.921,189.919 102.013,190.123 102.543 C 190.309 103.029,190.110 103.330,189.431 103.588 C 188.907 103.788,188.360 104.142,188.215 104.375 C 188.071 104.609,187.598 104.800,187.164 104.800 C 186.730 104.800,186.271 105.070,186.145 105.400 C 186.018 105.730,185.664 106.000,185.357 106.000 C 185.051 106.000,184.800 106.332,184.800 106.738 C 184.800 107.754,183.637 108.707,182.200 108.867 C 181.399 108.956,180.998 109.223,180.995 109.672 C 180.992 110.041,180.828 110.491,180.631 110.672 C 180.426 110.859,180.395 110.786,180.559 110.500 C 180.737 110.191,180.609 110.000,180.224 110.000 C 179.832 110.000,179.600 110.357,179.600 110.963 C 179.600 111.728,179.436 111.882,178.800 111.716 C 178.244 111.570,178.000 111.704,178.000 112.153 C 178.000 112.599,177.642 112.800,176.847 112.800 C 176.029 112.800,175.632 113.033,175.484 113.602 C 175.339 114.154,175.066 114.324,174.607 114.147 C 174.110 113.956,173.973 114.083,174.070 114.646 C 174.172 115.238,173.921 115.427,172.900 115.525 C 171.972 115.615,171.600 115.853,171.600 116.356 C 171.600 116.912,171.346 117.024,170.405 116.886 C 169.559 116.762,169.137 116.899,168.962 117.355 C 168.826 117.710,168.320 118.000,167.837 118.000 C 167.355 118.000,166.744 118.216,166.480 118.480 C 166.159 118.801,166.000 118.815,166.000 118.523 C 166.000 118.282,166.258 117.987,166.573 117.866 C 166.888 117.745,167.203 117.051,167.273 116.323 C 167.369 115.321,167.570 115.029,168.100 115.118 C 168.515 115.187,168.800 114.984,168.800 114.618 C 168.800 114.278,169.078 114.000,169.418 114.000 C 169.908 114.000,169.982 113.709,169.774 112.600 C 169.605 111.702,169.666 111.200,169.943 111.200 C 170.181 111.200,170.262 111.495,170.124 111.855 C 169.951 112.304,170.049 112.451,170.436 112.324 C 170.746 112.222,171.057 111.657,171.127 111.069 C 171.215 110.323,171.486 110.000,172.027 110.000 C 172.452 110.000,172.800 109.795,172.800 109.544 C 172.800 109.293,173.115 108.843,173.500 108.543 C 174.052 108.114,174.066 108.044,173.567 108.216 C 173.174 108.352,172.933 108.207,172.933 107.835 C 172.933 107.505,173.071 107.320,173.239 107.424 C 173.407 107.528,173.653 107.438,173.785 107.224 C 173.917 107.010,174.311 106.944,174.659 107.078 C 175.153 107.267,175.235 107.139,175.030 106.494 C 174.878 106.016,174.969 105.543,175.246 105.372 C 175.548 105.185,175.618 105.246,175.438 105.538 C 175.281 105.792,175.368 106.000,175.631 106.000 C 176.182 106.000,178.000 104.143,178.000 103.579 C 178.000 103.371,178.270 103.200,178.600 103.200 C 178.930 103.200,179.200 103.020,179.200 102.800 C 179.200 102.580,179.560 102.040,180.000 101.600 C 181.147 100.453,181.175 96.023,180.037 95.726 C 179.617 95.616,179.184 95.183,179.074 94.763 C 178.899 94.092,178.486 94.000,175.637 94.000 C 173.026 94.000,172.400 93.884,172.400 93.400 C 172.400 92.910,171.727 92.800,168.744 92.800 C 165.733 92.800,164.994 92.676,164.552 92.100 C 164.083 91.488,163.965 91.475,163.614 92.000 C 163.393 92.330,163.209 92.420,163.205 92.200 C 163.202 91.980,162.667 91.763,162.017 91.717 C 161.367 91.672,160.470 91.270,160.025 90.825 L 159.214 90.014 168.707 89.907 C 180.265 89.777,182.096 89.872,182.518 90.624 M230.876 102.000 C 231.579 102.000,232.346 101.698,232.656 101.300 C 233.174 100.633,233.226 100.633,233.744 101.300 C 234.043 101.685,234.583 102.000,234.944 102.000 C 235.305 102.000,235.600 102.270,235.600 102.600 C 235.600 102.930,235.780 103.200,236.000 103.200 C 236.220 103.200,236.760 103.560,237.200 104.000 C 237.640 104.440,238.444 104.800,238.987 104.800 C 239.746 104.800,239.915 104.955,239.718 105.469 C 239.523 105.977,239.623 106.077,240.131 105.882 C 240.617 105.695,240.800 105.841,240.800 106.413 C 240.800 106.846,241.070 107.200,241.400 107.200 C 241.730 107.200,242.000 107.487,242.000 107.837 C 242.000 108.188,242.360 108.569,242.800 108.684 C 243.240 108.799,243.600 109.142,243.600 109.447 C 243.600 109.751,243.870 110.000,244.200 110.000 C 244.530 110.000,244.800 110.270,244.800 110.600 C 244.800 110.930,245.070 111.200,245.400 111.200 C 245.730 111.200,246.000 111.487,246.000 111.837 C 246.000 112.188,246.360 112.569,246.800 112.684 C 247.240 112.799,247.600 113.121,247.600 113.400 C 247.600 113.679,247.978 114.006,248.440 114.126 C 248.902 114.247,249.174 114.518,249.045 114.728 C 248.915 114.938,249.077 115.332,249.404 115.604 C 249.732 115.876,250.000 116.453,250.000 116.886 C 250.000 117.338,250.341 117.764,250.800 117.884 C 251.240 117.999,251.600 118.342,251.600 118.647 C 251.600 118.951,251.870 119.200,252.200 119.200 C 252.569 119.200,252.800 119.575,252.800 120.176 C 252.800 121.410,253.436 121.819,254.318 121.154 C 254.896 120.717,254.924 120.724,254.500 121.199 C 253.716 122.078,253.885 123.200,254.800 123.200 C 255.448 123.200,255.600 123.467,255.600 124.600 C 255.600 125.578,255.781 126.000,256.200 126.000 C 256.600 126.000,256.800 126.400,256.800 127.200 C 256.800 128.000,257.000 128.400,257.400 128.400 C 257.804 128.400,258.000 128.804,258.000 129.637 C 258.000 130.538,258.217 130.932,258.800 131.084 C 259.401 131.241,259.600 131.630,259.600 132.647 C 259.600 133.583,259.785 134.000,260.200 134.000 C 260.845 134.000,260.920 134.285,260.810 136.301 C 260.763 137.165,260.950 137.683,261.369 137.844 C 261.814 138.014,262.000 138.615,262.000 139.880 C 262.000 141.338,262.150 141.714,262.800 141.884 C 263.515 142.071,263.600 142.430,263.600 145.247 C 263.600 147.783,263.717 148.400,264.200 148.400 C 264.703 148.400,264.804 149.277,264.824 153.800 C 264.889 168.789,264.888 168.800,264.200 168.800 C 263.731 168.800,263.600 169.345,263.600 171.304 C 263.600 173.404,263.466 173.891,262.771 174.325 C 262.115 174.735,261.966 175.180,262.058 176.457 C 262.145 177.650,261.996 178.170,261.487 178.455 C 261.018 178.717,260.800 179.342,260.800 180.420 C 260.800 181.558,260.632 182.000,260.200 182.000 C 259.781 182.000,259.600 182.422,259.600 183.400 C 259.600 184.533,259.448 184.800,258.800 184.800 C 258.152 184.800,258.000 185.067,258.000 186.200 C 258.000 187.178,257.819 187.600,257.400 187.600 C 257.070 187.600,256.800 187.870,256.800 188.200 C 256.800 188.530,256.530 188.800,256.200 188.800 C 255.797 188.800,255.600 189.203,255.600 190.029 C 255.600 191.384,254.614 192.763,254.264 191.896 C 254.146 191.604,254.050 191.688,254.032 192.100 C 254.014 192.485,253.730 192.800,253.400 192.800 C 253.070 192.800,252.800 193.141,252.800 193.557 C 252.800 193.974,252.522 194.421,252.181 194.552 C 251.841 194.682,251.592 195.017,251.629 195.295 C 251.775 196.414,251.563 196.800,250.800 196.800 C 250.356 196.800,250.000 197.067,250.000 197.400 C 250.000 197.730,249.730 198.000,249.400 198.000 C 249.067 198.000,248.800 198.356,248.800 198.800 C 248.800 199.244,248.533 199.600,248.200 199.600 C 247.870 199.600,247.600 199.870,247.600 200.200 C 247.600 200.530,247.401 200.800,247.157 200.800 C 246.909 200.800,246.822 201.108,246.958 201.500 C 247.161 202.084,247.102 202.071,246.601 201.424 C 246.076 200.745,246.000 200.733,246.000 201.324 C 246.000 201.696,245.719 202.000,245.376 202.000 C 245.033 202.000,244.863 202.178,244.997 202.395 C 245.137 202.622,244.977 202.689,244.624 202.554 C 244.260 202.414,243.906 202.581,243.761 202.958 C 243.625 203.311,243.270 203.600,242.971 203.600 C 242.673 203.600,242.215 204.005,241.954 204.500 C 241.355 205.638,240.831 205.986,239.703 205.994 C 239.210 205.997,238.582 206.360,238.307 206.800 C 238.032 207.240,237.581 207.600,237.304 207.600 C 237.027 207.600,236.800 207.870,236.800 208.200 C 236.800 208.619,236.378 208.800,235.400 208.800 C 234.311 208.800,234.000 208.962,234.000 209.531 C 234.000 210.115,233.760 210.226,232.800 210.085 C 231.790 209.937,231.600 210.043,231.600 210.755 C 231.600 211.454,231.358 211.600,230.200 211.600 C 229.222 211.600,228.800 211.781,228.800 212.200 C 228.800 212.653,228.311 212.800,226.800 212.800 C 225.289 212.800,224.800 212.947,224.800 213.400 C 224.800 213.953,224.307 214.186,223.458 214.033 C 223.270 214.000,222.830 214.203,222.481 214.486 C 221.997 214.878,221.918 214.882,222.147 214.500 C 222.348 214.165,222.176 214.000,221.624 214.000 C 220.730 214.000,220.486 215.007,221.300 215.335 C 221.830 215.549,218.965 215.736,217.079 215.610 C 216.463 215.569,215.490 215.842,214.919 216.217 C 214.125 216.737,213.036 216.891,210.320 216.868 C 207.557 216.845,206.710 216.968,206.537 217.419 C 206.270 218.116,193.600 218.301,193.600 217.608 C 193.600 216.933,191.554 216.629,191.163 217.246 C 190.910 217.645,190.811 217.660,190.806 217.300 C 190.802 216.942,189.890 216.800,187.600 216.800 C 185.022 216.800,184.400 216.683,184.400 216.200 C 184.400 215.729,183.850 215.600,181.847 215.600 C 179.616 215.600,179.266 215.497,179.081 214.787 C 178.897 214.083,178.611 213.995,176.934 214.128 C 174.649 214.308,174.000 214.128,174.000 213.312 C 174.000 212.864,173.678 212.756,172.746 212.893 C 171.771 213.036,171.450 212.913,171.300 212.339 C 171.170 211.841,170.739 211.600,169.980 211.600 C 169.205 211.600,168.775 211.350,168.600 210.800 C 168.422 210.240,167.995 210.000,167.173 210.000 C 166.397 210.000,166.000 209.797,166.000 209.400 C 166.000 208.981,165.578 208.800,164.600 208.800 C 163.622 208.800,163.200 208.619,163.200 208.200 C 163.200 207.805,162.805 207.600,162.047 207.600 C 161.230 207.600,160.832 207.367,160.684 206.800 C 160.569 206.360,160.188 206.000,159.837 206.000 C 159.487 206.000,159.200 205.730,159.200 205.400 C 159.200 205.070,158.859 204.800,158.443 204.800 C 158.026 204.800,157.582 204.530,157.455 204.200 C 157.329 203.870,156.769 203.600,156.213 203.600 C 155.508 203.600,155.200 203.383,155.200 202.888 C 155.200 202.464,154.715 201.992,154.000 201.722 C 153.195 201.418,152.800 200.995,152.800 200.435 C 152.800 199.867,152.544 199.600,152.000 199.600 C 151.467 199.600,151.200 199.333,151.200 198.800 C 151.200 198.356,150.933 198.000,150.600 198.000 C 150.270 198.000,150.000 197.730,150.000 197.400 C 150.000 197.070,149.730 196.800,149.400 196.800 C 149.070 196.800,148.800 196.530,148.800 196.200 C 148.800 195.867,148.444 195.600,148.000 195.600 C 147.424 195.600,147.200 195.333,147.200 194.649 C 147.200 194.126,146.930 193.474,146.600 193.200 C 146.270 192.926,146.000 192.433,146.000 192.104 C 146.000 191.717,145.736 191.576,145.251 191.703 C 144.672 191.854,144.547 191.726,144.700 191.139 C 144.821 190.676,144.567 190.092,144.049 189.643 C 143.582 189.238,143.200 188.612,143.200 188.253 C 143.200 187.894,142.930 187.600,142.600 187.600 C 141.979 187.600,141.860 187.234,141.984 185.700 C 142.032 185.118,141.835 184.800,141.429 184.800 C 140.993 184.800,140.800 184.421,140.800 183.563 C 140.800 182.662,140.583 182.268,140.000 182.116 C 139.482 181.981,139.200 181.570,139.200 180.953 C 139.200 180.429,138.975 179.997,138.700 179.994 C 138.365 179.990,138.396 179.864,138.795 179.612 C 139.301 179.292,139.260 179.115,138.519 178.425 C 137.846 177.798,137.697 177.313,137.863 176.288 C 138.014 175.359,137.887 174.804,137.439 174.432 C 137.016 174.081,136.800 173.253,136.800 171.984 C 136.800 169.690,136.508 168.800,135.757 168.800 C 135.193 168.800,135.153 168.346,135.153 162.000 C 135.153 149.027,135.185 148.400,135.847 148.400 C 136.297 148.400,136.430 148.156,136.284 147.599 C 136.161 147.130,136.238 146.900,136.469 147.043 C 136.711 147.192,136.838 146.535,136.796 145.343 C 136.692 142.348,136.755 142.000,137.400 142.000 C 137.852 142.000,138.000 141.516,138.000 140.043 C 138.000 138.672,138.180 138.017,138.600 137.855 C 139.008 137.699,139.200 137.060,139.200 135.859 C 139.200 134.430,139.352 134.053,140.000 133.884 C 140.575 133.734,140.800 133.338,140.800 132.480 C 140.800 131.766,141.051 131.189,141.426 131.046 C 141.770 130.913,142.019 130.489,141.980 130.103 C 141.847 128.808,141.996 128.400,142.600 128.400 C 143.000 128.400,143.200 128.000,143.200 127.200 C 143.200 126.441,143.405 126.000,143.757 126.000 C 144.369 126.000,144.800 125.159,144.800 123.967 C 144.800 123.537,145.076 123.200,145.427 123.200 C 145.874 123.200,145.980 122.968,145.797 122.390 C 145.655 121.944,145.688 121.606,145.870 121.637 C 146.851 121.808,147.200 121.484,147.200 120.400 C 147.200 119.710,147.413 119.197,147.700 119.193 C 148.383 119.184,150.000 117.425,150.000 116.693 C 150.000 116.366,150.270 115.874,150.600 115.600 C 150.930 115.326,151.200 114.854,151.200 114.551 C 151.200 114.248,151.560 114.000,152.000 114.000 C 152.440 114.000,152.800 113.749,152.800 113.443 C 152.800 113.136,153.070 112.782,153.400 112.655 C 153.730 112.529,154.000 112.139,154.000 111.789 C 154.000 111.410,153.813 111.268,153.538 111.438 C 153.267 111.606,153.184 111.549,153.339 111.299 C 153.483 111.066,153.961 110.969,154.400 111.084 C 154.956 111.230,155.200 111.096,155.200 110.647 C 155.200 110.291,155.425 109.997,155.700 109.993 C 156.310 109.985,158.000 108.258,158.000 107.644 C 158.000 107.400,158.270 107.200,158.600 107.200 C 158.930 107.200,159.200 106.930,159.200 106.600 C 159.200 106.267,159.556 106.000,160.000 106.000 C 160.444 106.000,160.800 105.733,160.800 105.400 C 160.800 105.070,161.030 104.800,161.312 104.800 C 161.593 104.800,162.083 104.440,162.400 104.000 C 162.717 103.560,163.257 103.200,163.599 103.200 C 163.942 103.200,164.530 102.840,164.907 102.400 C 165.839 101.312,166.328 101.394,166.098 102.600 C 165.993 103.150,165.658 103.600,165.353 103.600 C 165.049 103.600,164.800 103.870,164.800 104.200 C 164.800 104.530,164.530 104.800,164.200 104.800 C 163.870 104.800,163.600 105.070,163.600 105.400 C 163.600 105.730,163.240 106.360,162.800 106.800 C 162.360 107.240,162.000 107.870,162.000 108.200 C 162.000 108.530,161.730 108.800,161.400 108.800 C 161.070 108.800,160.800 109.051,160.800 109.357 C 160.800 109.664,160.530 110.018,160.200 110.145 C 159.826 110.288,159.600 110.898,159.600 111.764 C 159.600 112.528,159.392 113.281,159.138 113.438 C 158.852 113.615,158.785 113.548,158.962 113.262 C 159.134 112.983,158.983 112.800,158.581 112.800 C 158.156 112.800,157.997 113.015,158.142 113.394 C 158.276 113.743,158.047 114.161,157.585 114.408 C 157.148 114.642,156.800 115.243,156.800 115.765 C 156.800 116.280,156.542 116.916,156.227 117.177 C 155.561 117.731,155.512 120.064,156.158 120.494 C 156.465 120.698,156.448 120.790,156.100 120.794 C 155.742 120.798,155.600 121.710,155.600 124.000 C 155.600 126.458,155.728 127.200,156.153 127.200 C 156.458 127.200,156.797 127.544,156.907 127.964 C 157.260 129.317,168.400 129.116,168.400 127.757 C 168.400 127.387,168.871 127.200,169.800 127.200 C 170.881 127.200,171.200 127.036,171.200 126.480 C 171.200 125.893,171.458 125.791,172.600 125.924 C 173.688 126.051,174.000 125.944,174.000 125.444 C 174.000 125.024,174.347 124.800,174.997 124.800 C 175.560 124.800,176.210 124.452,176.493 124.000 C 176.768 123.560,177.287 123.200,177.647 123.200 C 178.007 123.200,178.526 122.930,178.800 122.600 C 179.074 122.270,179.537 122.000,179.829 122.000 C 180.121 122.000,180.504 121.771,180.680 121.492 C 180.856 121.212,181.513 120.758,182.139 120.482 C 182.911 120.143,183.202 119.782,183.042 119.365 C 182.861 118.894,182.994 118.808,183.604 119.001 C 184.135 119.170,184.485 119.044,184.645 118.628 C 184.777 118.282,185.136 118.000,185.443 118.000 C 185.749 118.000,186.000 117.744,186.000 117.432 C 186.000 117.119,186.540 116.745,187.200 116.600 C 187.860 116.455,188.400 116.081,188.400 115.768 C 188.400 115.456,188.760 115.200,189.200 115.200 C 189.644 115.200,190.000 114.933,190.000 114.600 C 190.000 114.270,190.270 114.000,190.600 114.000 C 190.930 114.000,191.200 113.730,191.200 113.400 C 191.200 113.070,191.476 112.800,191.813 112.800 C 192.149 112.800,192.544 112.485,192.690 112.100 C 193.070 111.096,194.000 110.197,194.000 110.833 C 194.000 111.158,194.247 111.100,194.731 110.662 C 195.134 110.298,195.674 110.000,195.931 110.000 C 196.189 110.000,196.400 109.751,196.400 109.447 C 196.400 108.792,197.670 108.389,198.800 108.684 C 199.240 108.799,199.600 109.142,199.600 109.447 C 199.600 109.751,199.851 110.000,200.157 110.000 C 200.464 110.000,200.818 110.270,200.945 110.600 C 201.071 110.930,201.647 111.200,202.225 111.200 C 202.938 111.200,203.342 111.456,203.484 112.000 C 203.599 112.440,203.942 112.800,204.247 112.800 C 204.551 112.800,204.800 113.070,204.800 113.400 C 204.800 113.730,205.070 114.000,205.400 114.000 C 205.730 114.000,206.000 114.291,206.000 114.647 C 206.000 115.096,206.244 115.230,206.800 115.084 C 207.384 114.931,207.600 115.072,207.600 115.606 C 207.600 116.092,208.001 116.424,208.800 116.600 C 209.499 116.753,210.000 117.120,210.000 117.478 C 210.000 117.896,210.256 118.026,210.800 117.884 C 211.393 117.729,211.600 117.872,211.600 118.437 C 211.600 118.932,211.880 119.200,212.397 119.200 C 212.835 119.200,213.418 119.560,213.693 120.000 C 213.968 120.440,214.509 120.800,214.896 120.800 C 215.283 120.800,215.600 121.070,215.600 121.400 C 215.600 121.730,215.938 122.000,216.351 122.000 C 216.764 122.000,217.326 122.270,217.600 122.600 C 217.874 122.930,218.415 123.200,218.802 123.200 C 219.190 123.200,219.607 123.582,219.729 124.049 C 219.906 124.726,220.187 124.863,221.118 124.727 C 222.104 124.582,222.254 124.672,222.086 125.314 C 221.929 125.915,222.085 126.055,222.844 125.992 C 224.450 125.857,224.800 125.974,224.800 126.645 C 224.800 127.141,225.091 127.248,226.054 127.107 C 227.009 126.967,227.351 127.089,227.490 127.624 C 227.873 129.085,238.699 129.471,239.074 128.037 C 239.184 127.617,239.620 127.184,240.042 127.073 C 241.210 126.768,241.136 118.413,239.963 118.106 C 239.435 117.968,239.200 117.552,239.200 116.753 C 239.200 115.995,238.995 115.600,238.600 115.600 C 238.181 115.600,238.000 115.178,238.000 114.200 C 238.000 113.222,237.819 112.800,237.400 112.800 C 237.070 112.800,236.800 112.558,236.800 112.262 C 236.800 111.966,236.440 111.398,236.000 111.000 C 235.560 110.602,235.200 109.944,235.200 109.538 C 235.200 109.132,234.930 108.800,234.600 108.800 C 234.270 108.800,234.000 108.530,234.000 108.200 C 234.000 107.870,233.730 107.600,233.400 107.600 C 233.067 107.600,232.800 107.244,232.800 106.800 C 232.800 106.267,232.533 106.000,232.000 106.000 C 231.411 106.000,231.200 105.733,231.200 104.987 C 231.200 104.431,230.948 103.878,230.639 103.760 C 230.331 103.641,229.982 103.174,229.863 102.720 C 229.728 102.202,229.431 101.979,229.063 102.120 C 228.526 102.326,228.491 102.160,228.782 100.800 C 228.805 100.690,229.008 100.915,229.232 101.300 C 229.481 101.728,230.121 102.000,230.876 102.000 M257.173 124.968 C 257.552 125.424,257.507 125.516,256.944 125.433 C 256.559 125.376,256.174 125.121,256.088 124.865 C 255.871 124.214,256.606 124.284,257.173 124.968 M86.090 249.500 C 86.250 250.110,86.020 250.182,84.310 250.060 C 82.590 249.937,82.319 250.023,82.126 250.760 C 81.967 251.368,81.589 251.600,80.753 251.600 C 79.995 251.600,79.600 251.805,79.600 252.200 C 79.600 252.533,79.244 252.800,78.800 252.800 C 78.356 252.800,78.000 253.067,78.000 253.400 C 78.000 253.730,77.730 254.000,77.400 254.000 C 77.070 254.000,76.800 254.338,76.800 254.751 C 76.800 255.164,76.552 255.707,76.250 255.959 C 75.948 256.210,75.700 256.866,75.700 257.417 C 75.700 257.968,75.317 258.751,74.850 259.157 C 74.381 259.564,74.000 260.371,74.000 260.959 C 74.000 261.557,73.725 262.131,73.374 262.265 C 72.968 262.421,72.771 262.944,72.814 263.753 C 73.049 268.135,72.777 271.600,72.200 271.600 C 71.380 271.600,71.281 305.805,72.100 306.135 C 72.500 306.296,72.500 306.343,72.100 306.368 C 71.299 306.419,71.395 316.236,72.200 316.545 C 72.675 316.727,72.800 317.568,72.800 320.587 C 72.800 323.710,72.909 324.400,73.400 324.400 C 73.819 324.400,74.000 324.822,74.000 325.800 C 74.000 326.933,74.152 327.200,74.800 327.200 C 75.448 327.200,75.600 327.467,75.600 328.600 C 75.600 329.578,75.781 330.000,76.200 330.000 C 76.530 330.000,76.800 330.270,76.800 330.600 C 76.800 330.930,77.070 331.200,77.400 331.200 C 77.730 331.200,78.000 331.487,78.000 331.837 C 78.000 332.188,78.360 332.569,78.800 332.684 C 79.240 332.799,79.600 333.142,79.600 333.447 C 79.600 333.751,79.851 334.000,80.157 334.000 C 80.464 334.000,80.818 334.270,80.945 334.600 C 81.102 335.011,81.745 335.200,82.987 335.200 C 84.270 335.200,84.800 335.363,84.800 335.757 C 84.800 336.624,85.739 336.800,90.333 336.795 C 95.099 336.788,96.400 336.565,96.400 335.753 C 96.400 335.363,96.940 335.200,98.237 335.200 C 99.701 335.200,100.115 335.047,100.272 334.446 C 100.405 333.936,100.716 333.758,101.235 333.893 C 101.755 334.029,102.000 333.887,102.000 333.447 C 102.000 333.091,102.270 332.800,102.600 332.800 C 102.930 332.800,103.200 332.462,103.200 332.049 C 103.200 331.636,103.505 331.051,103.877 330.749 C 104.337 330.376,104.457 330.360,104.253 330.700 C 104.088 330.975,104.143 331.200,104.376 331.200 C 104.609 331.200,104.800 330.930,104.800 330.600 C 104.800 330.270,105.070 330.000,105.400 330.000 C 105.819 330.000,106.000 329.578,106.000 328.600 C 106.000 327.582,106.175 327.200,106.642 327.200 C 107.146 327.200,107.252 326.868,107.136 325.649 C 107.033 324.568,107.132 324.153,107.463 324.280 C 108.376 324.630,108.794 322.857,108.697 319.042 C 108.604 315.396,108.632 315.253,109.303 315.925 C 109.869 316.491,110.012 317.365,110.039 320.414 C 110.076 324.774,110.233 325.600,111.027 325.600 C 111.579 325.600,111.766 326.250,111.625 327.675 C 111.588 328.046,111.921 328.544,112.364 328.781 C 112.841 329.036,113.077 329.454,112.943 329.805 C 112.703 330.429,114.285 332.381,115.038 332.393 C 115.279 332.397,115.802 332.760,116.200 333.200 C 116.598 333.640,117.237 334.000,117.619 334.000 C 118.002 334.000,118.418 334.270,118.545 334.600 C 118.698 335.001,119.329 335.200,120.443 335.200 C 121.567 335.200,122.278 335.427,122.620 335.895 C 123.579 337.207,132.400 337.104,132.400 335.782 C 132.400 335.350,132.917 335.200,134.400 335.200 C 135.911 335.200,136.400 335.053,136.400 334.600 C 136.400 334.267,136.756 334.000,137.200 334.000 C 137.640 334.000,138.000 333.769,138.000 333.488 C 138.000 333.206,138.562 332.763,139.249 332.504 C 140.034 332.208,140.420 331.830,140.289 331.489 C 140.152 331.131,140.374 330.955,140.940 330.973 C 141.589 330.993,141.831 330.730,141.927 329.900 C 141.999 329.270,142.298 328.800,142.627 328.800 C 142.942 328.800,143.200 328.440,143.200 328.000 C 143.200 327.560,143.449 327.200,143.753 327.200 C 144.360 327.200,144.786 326.013,144.795 324.300 C 144.798 323.620,145.016 323.200,145.367 323.200 C 145.773 323.200,145.933 322.682,145.933 321.368 C 145.933 320.271,146.183 319.261,146.557 318.848 C 147.435 317.877,147.436 304.734,146.558 305.071 C 146.251 305.189,146.000 305.086,146.000 304.843 C 146.000 304.599,146.270 304.400,146.600 304.400 C 147.357 304.400,147.361 303.966,146.613 302.976 C 146.237 302.480,146.021 301.243,146.013 299.549 C 146.004 297.693,145.820 296.749,145.400 296.400 C 145.070 296.126,144.798 295.339,144.795 294.651 C 144.786 292.797,144.378 291.600,143.753 291.600 C 143.391 291.600,143.200 291.132,143.200 290.247 C 143.200 289.257,142.997 288.840,142.446 288.696 C 141.877 288.547,141.741 288.242,141.892 287.454 C 142.030 286.731,141.893 286.334,141.446 286.162 C 141.091 286.026,140.800 285.664,140.800 285.357 C 140.800 285.051,140.440 284.800,140.000 284.800 C 139.560 284.800,139.200 284.632,139.200 284.428 C 139.200 283.442,137.307 281.169,136.300 280.945 C 135.695 280.810,135.200 280.453,135.200 280.150 C 135.200 279.810,134.759 279.600,134.047 279.600 C 133.208 279.600,132.833 279.369,132.671 278.751 C 132.491 278.063,132.217 277.936,131.225 278.082 C 130.240 278.226,130.000 278.118,130.000 277.531 C 130.000 277.126,129.713 276.800,129.357 276.800 C 128.960 276.800,128.799 277.022,128.937 277.380 C 129.085 277.767,128.967 277.885,128.580 277.737 C 128.261 277.614,128.000 277.353,128.000 277.155 C 128.000 276.514,117.719 276.774,117.176 277.429 C 116.895 277.768,115.975 278.000,114.914 278.000 C 113.462 278.000,113.086 278.150,112.916 278.800 C 112.759 279.401,112.370 279.600,111.353 279.600 L 110.000 279.600 109.958 275.700 C 109.934 273.555,109.948 271.305,109.988 270.700 C 110.028 270.095,109.867 269.600,109.630 269.600 C 109.394 269.600,109.200 269.409,109.200 269.176 C 109.200 268.943,109.380 268.864,109.600 269.000 C 109.820 269.136,110.000 268.877,110.000 268.424 C 110.000 267.958,109.739 267.600,109.400 267.600 C 108.793 267.600,108.633 266.559,108.793 263.671 C 108.850 262.627,108.688 262.296,108.033 262.125 C 107.349 261.946,107.200 261.594,107.200 260.153 C 107.200 259.189,107.030 258.400,106.822 258.400 C 106.430 258.400,105.565 257.004,104.777 255.100 C 104.527 254.495,104.069 254.000,103.761 254.000 C 103.452 254.000,103.200 253.730,103.200 253.400 C 103.200 253.070,102.862 252.800,102.449 252.800 C 102.036 252.800,101.474 252.530,101.200 252.200 C 100.926 251.870,100.385 251.600,99.998 251.600 C 99.610 251.600,99.204 251.258,99.094 250.839 C 98.927 250.200,98.529 250.082,96.597 250.100 C 94.862 250.115,94.209 249.958,93.930 249.460 C 93.357 248.436,85.821 248.475,86.090 249.500 M186.259 272.189 C 186.093 272.622,185.453 272.800,184.059 272.800 C 182.462 272.800,182.056 272.943,181.894 273.562 C 181.732 274.182,181.428 274.289,180.269 274.133 C 179.134 273.980,178.738 274.109,178.326 274.770 C 178.041 275.227,177.581 275.600,177.304 275.600 C 177.027 275.600,176.800 275.870,176.800 276.200 C 176.800 276.570,176.424 276.800,175.818 276.800 C 174.356 276.800,172.686 278.645,172.890 280.034 C 172.981 280.652,172.953 281.096,172.828 281.021 C 172.370 280.745,171.789 281.836,171.668 283.200 C 171.600 283.970,171.286 284.800,170.972 285.044 C 170.225 285.624,170.240 286.653,171.000 286.945 C 171.468 287.124,171.600 287.923,171.600 290.587 C 171.600 293.354,171.714 294.000,172.200 294.000 C 172.600 294.000,172.800 294.400,172.800 295.200 C 172.800 296.000,173.000 296.400,173.400 296.400 C 173.730 296.400,174.000 296.687,174.000 297.037 C 174.000 297.388,174.348 297.766,174.772 297.877 C 175.197 297.988,175.641 298.331,175.760 298.639 C 175.878 298.948,176.341 299.200,176.787 299.200 C 177.234 299.200,177.950 299.550,178.377 299.977 C 178.953 300.553,179.693 300.750,181.230 300.738 C 182.391 300.729,183.431 300.927,183.592 301.187 C 184.108 302.021,183.559 303.600,182.753 303.600 C 182.339 303.600,182.000 303.870,182.000 304.200 C 182.000 304.530,181.730 304.800,181.400 304.800 C 181.070 304.800,180.800 305.070,180.800 305.400 C 180.800 305.730,180.530 306.000,180.200 306.000 C 179.867 306.000,179.600 306.356,179.600 306.800 C 179.600 307.250,179.333 307.600,178.990 307.600 C 178.632 307.600,178.281 308.096,178.140 308.800 C 178.008 309.460,177.653 310.000,177.350 310.000 C 177.048 310.000,176.800 310.338,176.800 310.751 C 176.800 311.164,176.535 311.722,176.211 311.991 C 175.695 312.419,175.701 312.558,176.265 313.122 C 176.771 313.628,176.794 313.802,176.376 313.941 C 173.936 314.755,172.558 328.098,174.852 328.698 C 175.364 328.832,175.600 329.257,175.600 330.047 C 175.600 330.762,175.810 331.200,176.153 331.200 C 176.458 331.200,176.801 331.560,176.916 332.000 C 177.041 332.479,177.462 332.800,177.963 332.800 C 178.423 332.800,178.800 332.977,178.800 333.192 C 178.800 333.408,179.293 333.709,179.896 333.860 C 180.499 334.011,181.256 334.399,181.578 334.721 C 181.976 335.119,182.213 335.162,182.315 334.854 C 182.399 334.604,182.642 334.400,182.857 334.400 C 183.072 334.400,183.117 334.611,182.958 334.868 C 182.764 335.182,182.886 335.252,183.332 335.082 C 183.745 334.923,184.304 335.160,184.820 335.714 C 185.840 336.809,213.417 337.369,214.712 336.320 C 215.065 336.034,215.234 335.999,215.089 336.242 C 214.533 337.171,219.863 336.931,220.516 335.998 C 220.981 335.335,221.543 335.166,223.351 335.144 C 224.758 335.127,225.718 334.922,225.903 334.597 C 226.066 334.311,226.650 334.015,227.200 333.938 C 227.851 333.848,228.182 333.561,228.147 333.115 C 228.118 332.739,228.208 332.446,228.347 332.463 C 229.340 332.587,230.000 332.303,230.000 331.751 C 230.000 331.238,229.882 331.200,229.436 331.570 C 229.003 331.929,228.802 331.926,228.574 331.558 C 228.392 331.263,228.445 331.181,228.711 331.345 C 228.949 331.492,229.247 331.447,229.373 331.244 C 229.498 331.041,229.961 330.969,230.400 331.084 C 231.063 331.257,231.200 331.096,231.200 330.143 C 231.200 329.426,231.501 328.804,232.000 328.493 C 232.592 328.123,232.803 327.551,232.813 326.297 C 232.820 325.363,233.090 324.251,233.413 323.824 C 234.227 322.747,234.217 318.569,233.400 318.255 C 232.993 318.099,232.800 317.461,232.800 316.266 C 232.800 315.114,232.524 314.158,232.000 313.491 C 231.560 312.931,231.200 312.277,231.200 312.037 C 231.200 311.797,230.930 311.600,230.600 311.600 C 230.256 311.600,230.000 311.239,230.000 310.753 C 230.000 310.104,229.814 309.955,229.200 310.116 C 228.607 310.271,228.400 310.128,228.400 309.563 C 228.400 308.982,228.114 308.800,227.200 308.800 C 226.400 308.800,226.000 308.600,226.000 308.200 C 226.000 307.785,225.583 307.600,224.647 307.600 C 223.630 307.600,223.241 307.401,223.084 306.800 C 222.905 306.115,222.538 306.000,220.534 306.000 C 218.626 306.000,218.100 305.852,217.693 305.200 C 217.397 304.726,217.357 304.400,217.597 304.400 C 217.818 304.400,218.000 304.149,218.000 303.843 C 218.000 303.536,218.270 303.182,218.600 303.055 C 218.930 302.929,219.200 302.632,219.200 302.396 C 219.200 302.160,219.560 301.580,220.000 301.108 C 220.440 300.636,220.800 300.013,220.800 299.725 C 220.800 299.436,221.070 299.200,221.400 299.200 C 221.730 299.200,222.000 298.930,222.000 298.600 C 222.000 298.270,222.270 298.000,222.600 298.000 C 223.019 298.000,223.200 297.578,223.200 296.600 C 223.200 295.467,223.352 295.200,224.000 295.200 C 224.589 295.200,224.800 294.933,224.800 294.187 C 224.800 293.631,225.070 293.071,225.400 292.945 C 225.770 292.803,226.000 292.195,226.000 291.357 C 226.000 290.456,226.189 290.000,226.564 290.000 C 227.018 290.000,227.137 288.986,227.175 284.800 C 227.218 279.878,227.179 279.600,226.433 279.600 C 225.848 279.600,225.688 279.384,225.808 278.757 C 225.935 278.101,225.808 277.957,225.236 278.106 C 224.685 278.251,224.548 278.120,224.689 277.582 C 224.824 277.067,224.613 276.826,223.938 276.723 C 223.422 276.645,223.045 276.360,223.100 276.091 C 223.155 275.821,223.020 275.600,222.800 275.600 C 222.580 275.600,222.040 275.240,221.600 274.800 C 221.114 274.314,220.267 274.000,219.443 274.000 C 218.576 274.000,217.998 273.772,217.844 273.370 C 217.645 272.852,217.027 272.762,214.400 272.870 C 211.567 272.985,211.198 272.919,211.199 272.300 C 211.200 271.837,210.896 271.604,210.300 271.613 C 209.423 271.625,209.419 271.640,210.176 272.213 C 210.604 272.536,210.784 272.794,210.576 272.787 C 210.369 272.780,209.865 272.521,209.455 272.210 C 208.300 271.335,186.595 271.315,186.259 272.189 M310.000 276.229 C 310.000 276.640,309.491 276.800,308.187 276.800 C 306.945 276.800,306.302 276.989,306.145 277.400 C 306.018 277.730,305.664 278.000,305.357 278.000 C 305.051 278.000,304.800 278.191,304.800 278.424 C 304.800 278.657,305.008 278.719,305.262 278.562 C 305.550 278.384,305.615 278.452,305.434 278.745 C 305.275 279.002,304.990 279.117,304.800 279.000 C 304.610 278.883,304.342 278.970,304.204 279.193 C 304.066 279.417,303.598 279.600,303.164 279.600 C 302.730 279.600,302.271 279.870,302.145 280.200 C 302.018 280.530,301.664 280.800,301.357 280.800 C 301.051 280.800,300.800 281.051,300.800 281.357 C 300.800 281.664,300.530 282.018,300.200 282.145 C 299.870 282.271,299.600 282.651,299.600 282.987 C 299.600 283.324,299.342 283.600,299.027 283.600 C 298.385 283.600,297.814 284.975,298.198 285.596 C 298.335 285.818,298.077 286.000,297.624 286.000 C 297.067 286.000,296.800 286.259,296.800 286.800 C 296.800 287.244,296.533 287.600,296.200 287.600 C 295.805 287.600,295.600 287.995,295.600 288.753 C 295.600 289.570,295.367 289.968,294.800 290.116 C 294.217 290.268,294.000 290.662,294.000 291.563 C 294.000 292.396,293.804 292.800,293.400 292.800 C 293.070 292.800,292.800 292.455,292.800 292.033 C 292.800 290.841,292.369 290.000,291.757 290.000 C 291.451 290.000,291.200 289.730,291.200 289.400 C 291.200 289.070,290.930 288.800,290.600 288.800 C 290.263 288.800,290.000 288.443,290.000 287.984 C 290.000 286.980,288.442 284.800,287.725 284.800 C 287.436 284.800,287.200 284.551,287.200 284.247 C 287.200 283.942,286.839 283.599,286.398 283.484 C 285.864 283.344,285.678 283.062,285.841 282.637 C 285.998 282.229,285.870 282.000,285.486 282.000 C 285.156 282.000,284.782 281.730,284.655 281.400 C 284.529 281.070,284.149 280.800,283.813 280.800 C 283.476 280.800,283.200 280.530,283.200 280.200 C 283.200 279.870,282.880 279.600,282.488 279.600 C 282.097 279.600,281.517 279.240,281.200 278.800 C 280.883 278.360,280.322 278.000,279.954 278.000 C 279.587 278.000,279.191 277.752,279.075 277.450 C 278.930 277.075,278.157 276.900,276.639 276.900 C 275.109 276.900,274.493 277.040,274.666 277.350 C 274.807 277.603,274.682 277.581,274.379 277.300 C 273.524 276.507,263.600 276.599,263.600 277.400 C 263.600 277.733,263.244 278.000,262.800 278.000 C 262.267 278.000,262.000 278.267,262.000 278.800 C 262.000 279.244,261.733 279.600,261.400 279.600 C 261.070 279.600,260.800 279.895,260.800 280.256 C 260.800 281.041,259.674 281.970,258.700 281.987 C 258.271 281.995,258.000 282.310,258.000 282.800 C 258.000 283.244,257.733 283.600,257.400 283.600 C 257.005 283.600,256.800 283.995,256.800 284.757 C 256.800 285.417,256.542 286.013,256.200 286.145 C 255.699 286.337,255.600 287.502,255.600 293.200 C 255.600 298.898,255.699 300.063,256.200 300.255 C 256.570 300.397,256.800 301.005,256.800 301.843 C 256.800 302.783,256.985 303.200,257.400 303.200 C 257.804 303.200,258.000 303.604,258.000 304.437 C 258.000 305.338,258.217 305.732,258.800 305.884 C 259.321 306.020,259.600 306.430,259.600 307.059 C 259.600 307.590,259.870 308.129,260.200 308.255 C 260.530 308.382,260.800 308.826,260.800 309.243 C 260.800 309.659,261.070 310.000,261.400 310.000 C 261.730 310.000,262.000 310.291,262.000 310.647 C 262.000 311.096,262.244 311.230,262.800 311.084 C 263.429 310.920,263.600 311.072,263.600 311.795 C 263.600 312.301,263.870 312.818,264.200 312.945 C 264.530 313.071,264.800 313.406,264.800 313.689 C 264.800 314.481,267.122 316.496,267.655 316.166 C 267.957 315.979,268.016 316.050,267.821 316.366 C 267.445 316.975,269.841 319.200,270.872 319.200 C 271.333 319.200,271.600 319.493,271.600 320.000 C 271.600 320.598,271.877 320.808,272.700 320.832 C 273.305 320.849,273.575 320.954,273.300 321.065 C 273.025 321.176,272.800 321.451,272.800 321.676 C 272.800 321.901,273.070 321.982,273.400 321.855 C 273.776 321.711,274.000 321.859,274.000 322.250 C 274.000 322.594,274.360 322.969,274.800 323.084 C 275.240 323.199,275.600 323.468,275.600 323.683 C 275.600 323.897,275.973 324.374,276.428 324.742 L 277.256 325.413 276.428 326.368 C 275.959 326.909,275.600 327.882,275.600 328.615 C 275.600 329.587,275.394 329.961,274.767 330.125 C 274.145 330.287,273.953 330.628,274.009 331.471 C 274.143 333.463,274.013 334.000,273.400 334.000 C 272.939 334.000,272.800 334.511,272.800 336.200 C 272.800 337.901,272.662 338.400,272.193 338.400 C 271.673 338.400,271.591 339.328,271.622 344.800 C 271.651 350.061,271.760 351.200,272.229 351.200 C 272.627 351.200,272.800 351.677,272.800 352.776 C 272.800 353.643,272.991 354.471,273.225 354.615 C 273.458 354.760,273.814 355.310,274.015 355.839 C 274.216 356.367,274.655 356.800,274.990 356.800 C 275.326 356.800,275.600 357.070,275.600 357.400 C 275.600 357.730,275.848 358.000,276.151 358.000 C 276.454 358.000,276.926 358.270,277.200 358.600 C 277.474 358.930,278.036 359.200,278.449 359.200 C 278.862 359.200,279.554 359.554,279.986 359.986 C 281.305 361.305,294.000 361.097,294.000 359.757 C 294.000 359.409,294.435 359.200,295.157 359.200 C 295.817 359.200,296.413 358.942,296.545 358.600 C 296.671 358.270,297.051 358.000,297.387 358.000 C 297.724 358.000,298.000 357.730,298.000 357.400 C 298.000 357.070,298.270 356.800,298.600 356.800 C 298.933 356.800,299.200 356.444,299.200 356.000 C 299.200 355.556,299.467 355.200,299.800 355.200 C 300.475 355.200,302.000 353.813,302.000 353.200 C 302.000 352.980,302.270 352.800,302.600 352.800 C 302.930 352.800,303.179 352.665,303.153 352.500 C 303.033 351.743,303.238 351.200,303.644 351.200 C 304.521 351.200,305.986 349.391,305.993 348.300 C 305.998 347.592,306.214 347.200,306.600 347.200 C 306.930 347.200,307.200 346.930,307.200 346.600 C 307.200 346.270,307.560 345.640,308.000 345.200 C 308.440 344.760,308.814 343.905,308.832 343.300 C 308.849 342.695,308.954 342.425,309.065 342.700 C 309.439 343.628,310.000 343.208,310.000 342.000 C 310.000 341.136,310.196 340.791,310.700 340.768 C 311.092 340.751,311.187 340.650,310.915 340.540 C 310.603 340.414,310.852 339.931,311.615 339.185 C 312.267 338.548,312.800 337.661,312.800 337.213 C 312.800 336.757,313.063 336.400,313.400 336.400 C 313.795 336.400,314.000 336.005,314.000 335.243 C 314.000 334.583,314.258 333.987,314.600 333.855 C 314.943 333.724,315.200 333.127,315.200 332.459 C 315.200 331.607,315.429 331.234,316.049 331.071 C 316.737 330.891,316.864 330.617,316.718 329.625 C 316.574 328.640,316.682 328.400,317.269 328.400 C 317.809 328.400,318.000 328.097,318.000 327.243 C 318.000 326.583,318.258 325.987,318.600 325.855 C 318.930 325.729,319.200 325.169,319.200 324.613 C 319.200 324.056,319.571 323.229,320.025 322.775 C 320.479 322.321,320.819 321.556,320.781 321.075 C 320.660 319.549,320.783 319.200,321.447 319.200 C 321.900 319.200,322.030 318.957,321.880 318.384 C 321.754 317.903,321.950 317.288,322.358 316.884 C 322.738 316.508,323.081 315.707,323.120 315.105 C 323.159 314.503,323.569 313.631,324.033 313.167 C 324.689 312.511,324.820 312.031,324.626 310.997 C 324.402 309.806,324.460 309.691,325.188 309.881 C 325.926 310.074,326.000 309.906,326.000 308.047 C 326.000 306.494,326.145 306.000,326.600 306.000 C 327.052 306.000,327.200 305.516,327.200 304.043 C 327.200 302.672,327.380 302.017,327.800 301.855 C 328.424 301.616,328.622 300.591,328.100 300.299 C 327.935 300.207,328.027 300.187,328.304 300.255 C 328.697 300.351,328.802 298.693,328.781 292.746 C 328.755 285.537,328.711 285.102,327.977 284.910 C 327.401 284.759,327.200 284.357,327.200 283.353 C 327.200 282.417,327.015 282.000,326.600 282.000 C 326.200 282.000,326.000 281.600,326.000 280.800 C 326.000 280.025,325.797 279.600,325.427 279.600 C 325.112 279.600,324.740 279.240,324.600 278.800 C 324.422 278.240,323.995 278.000,323.173 278.000 C 322.397 278.000,322.000 277.797,322.000 277.400 C 322.000 276.979,321.575 276.800,320.571 276.800 C 319.786 276.800,318.875 276.533,318.548 276.206 C 317.703 275.360,310.000 275.381,310.000 276.229 M324.000 279.000 C 324.278 279.335,324.321 279.600,324.098 279.600 C 323.878 279.600,323.474 279.330,323.200 279.000 C 322.922 278.665,322.879 278.400,323.102 278.400 C 323.322 278.400,323.726 278.670,324.000 279.000 M76.972 328.355 C 77.093 328.550,76.961 328.901,76.679 329.134 C 76.294 329.454,76.153 329.365,76.108 328.780 C 76.048 327.981,76.579 327.719,76.972 328.355 M219.753 335.421 C 219.884 335.762,219.828 335.941,219.630 335.818 C 219.431 335.695,219.192 335.731,219.100 335.898 C 219.007 336.064,218.982 335.987,219.043 335.726 C 219.105 335.465,218.940 335.164,218.678 335.057 C 218.403 334.946,218.479 334.850,218.857 334.832 C 219.219 334.814,219.622 335.079,219.753 335.421 " stroke="none" fill="#746454" fill-rule="evenodd"></path><path id="path1" d="M228.769 100.900 C 228.475 101.863,228.564 102.312,229.014 102.139 C 229.309 102.026,229.452 101.679,229.332 101.367 C 229.138 100.862,228.853 100.626,228.769 100.900 M173.796 107.207 C 173.658 107.430,173.407 107.528,173.239 107.424 C 173.071 107.320,172.933 107.497,172.933 107.818 C 172.933 108.651,173.499 108.536,174.000 107.600 C 174.433 106.791,174.260 106.456,173.796 107.207 M256.088 124.865 C 256.174 125.121,256.559 125.376,256.944 125.433 C 257.507 125.516,257.552 125.424,257.173 124.968 C 256.606 124.284,255.871 124.214,256.088 124.865 M323.200 279.000 C 323.474 279.330,323.878 279.600,324.098 279.600 C 324.321 279.600,324.278 279.335,324.000 279.000 C 323.726 278.670,323.322 278.400,323.102 278.400 C 322.879 278.400,322.922 278.665,323.200 279.000 M175.733 313.400 C 175.733 313.730,175.968 314.000,176.254 314.000 C 176.553 314.000,176.677 313.744,176.545 313.400 C 176.418 313.070,176.184 312.800,176.024 312.800 C 175.864 312.800,175.733 313.070,175.733 313.400 M76.108 328.780 C 76.153 329.365,76.294 329.454,76.679 329.134 C 76.961 328.901,77.093 328.550,76.972 328.355 C 76.579 327.719,76.048 327.981,76.108 328.780 M218.678 335.057 C 218.940 335.164,219.105 335.465,219.043 335.726 C 218.982 335.987,219.007 336.064,219.100 335.898 C 219.192 335.731,219.431 335.695,219.630 335.818 C 219.828 335.941,219.884 335.762,219.753 335.421 C 219.622 335.079,219.219 334.814,218.857 334.832 C 218.479 334.850,218.403 334.946,218.678 335.057 " stroke="none" fill="#786454" fill-rule="evenodd"></path><path id="path2" d="M228.769 100.900 C 228.475 101.863,228.564 102.312,229.014 102.139 C 229.309 102.026,229.452 101.679,229.332 101.367 C 229.138 100.862,228.853 100.626,228.769 100.900 M173.796 107.207 C 173.658 107.430,173.407 107.528,173.239 107.424 C 173.071 107.320,172.933 107.497,172.933 107.818 C 172.933 108.651,173.499 108.536,174.000 107.600 C 174.433 106.791,174.260 106.456,173.796 107.207 M256.088 124.865 C 256.174 125.121,256.559 125.376,256.944 125.433 C 257.507 125.516,257.552 125.424,257.173 124.968 C 256.606 124.284,255.871 124.214,256.088 124.865 M323.200 279.000 C 323.474 279.330,323.878 279.600,324.098 279.600 C 324.321 279.600,324.278 279.335,324.000 279.000 C 323.726 278.670,323.322 278.400,323.102 278.400 C 322.879 278.400,322.922 278.665,323.200 279.000 M175.733 313.400 C 175.733 313.730,175.968 314.000,176.254 314.000 C 176.553 314.000,176.677 313.744,176.545 313.400 C 176.418 313.070,176.184 312.800,176.024 312.800 C 175.864 312.800,175.733 313.070,175.733 313.400 M76.108 328.780 C 76.153 329.365,76.294 329.454,76.679 329.134 C 76.961 328.901,77.093 328.550,76.972 328.355 C 76.579 327.719,76.048 327.981,76.108 328.780 M218.678 335.057 C 218.940 335.164,219.105 335.465,219.043 335.726 C 218.982 335.987,219.007 336.064,219.100 335.898 C 219.192 335.731,219.431 335.695,219.630 335.818 C 219.828 335.941,219.884 335.762,219.753 335.421 C 219.622 335.079,219.219 334.814,218.857 334.832 C 218.479 334.850,218.403 334.946,218.678 335.057 " stroke="none" fill="#786454" fill-rule="evenodd"></path><path id="path3" d="M228.769 100.900 C 228.475 101.863,228.564 102.312,229.014 102.139 C 229.309 102.026,229.452 101.679,229.332 101.367 C 229.138 100.862,228.853 100.626,228.769 100.900 M173.796 107.207 C 173.658 107.430,173.407 107.528,173.239 107.424 C 173.071 107.320,172.933 107.497,172.933 107.818 C 172.933 108.651,173.499 108.536,174.000 107.600 C 174.433 106.791,174.260 106.456,173.796 107.207 M256.088 124.865 C 256.174 125.121,256.559 125.376,256.944 125.433 C 257.507 125.516,257.552 125.424,257.173 124.968 C 256.606 124.284,255.871 124.214,256.088 124.865 M323.200 279.000 C 323.474 279.330,323.878 279.600,324.098 279.600 C 324.321 279.600,324.278 279.335,324.000 279.000 C 323.726 278.670,323.322 278.400,323.102 278.400 C 322.879 278.400,322.922 278.665,323.200 279.000 M175.733 313.400 C 175.733 313.730,175.968 314.000,176.254 314.000 C 176.553 314.000,176.677 313.744,176.545 313.400 C 176.418 313.070,176.184 312.800,176.024 312.800 C 175.864 312.800,175.733 313.070,175.733 313.400 M76.108 328.780 C 76.153 329.365,76.294 329.454,76.679 329.134 C 76.961 328.901,77.093 328.550,76.972 328.355 C 76.579 327.719,76.048 327.981,76.108 328.780 M218.678 335.057 C 218.940 335.164,219.105 335.465,219.043 335.726 C 218.982 335.987,219.007 336.064,219.100 335.898 C 219.192 335.731,219.431 335.695,219.630 335.818 C 219.828 335.941,219.884 335.762,219.753 335.421 C 219.622 335.079,219.219 334.814,218.857 334.832 C 218.479 334.850,218.403 334.946,218.678 335.057 " stroke="none" fill="#786454" fill-rule="evenodd"></path><path id="path4" d="M228.769 100.900 C 228.475 101.863,228.564 102.312,229.014 102.139 C 229.309 102.026,229.452 101.679,229.332 101.367 C 229.138 100.862,228.853 100.626,228.769 100.900 M173.796 107.207 C 173.658 107.430,173.407 107.528,173.239 107.424 C 173.071 107.320,172.933 107.497,172.933 107.818 C 172.933 108.651,173.499 108.536,174.000 107.600 C 174.433 106.791,174.260 106.456,173.796 107.207 M256.088 124.865 C 256.174 125.121,256.559 125.376,256.944 125.433 C 257.507 125.516,257.552 125.424,257.173 124.968 C 256.606 124.284,255.871 124.214,256.088 124.865 M323.200 279.000 C 323.474 279.330,323.878 279.600,324.098 279.600 C 324.321 279.600,324.278 279.335,324.000 279.000 C 323.726 278.670,323.322 278.400,323.102 278.400 C 322.879 278.400,322.922 278.665,323.200 279.000 M175.733 313.400 C 175.733 313.730,175.968 314.000,176.254 314.000 C 176.553 314.000,176.677 313.744,176.545 313.400 C 176.418 313.070,176.184 312.800,176.024 312.800 C 175.864 312.800,175.733 313.070,175.733 313.400 M76.108 328.780 C 76.153 329.365,76.294 329.454,76.679 329.134 C 76.961 328.901,77.093 328.550,76.972 328.355 C 76.579 327.719,76.048 327.981,76.108 328.780 M218.678 335.057 C 218.940 335.164,219.105 335.465,219.043 335.726 C 218.982 335.987,219.007 336.064,219.100 335.898 C 219.192 335.731,219.431 335.695,219.630 335.818 C 219.828 335.941,219.884 335.762,219.753 335.421 C 219.622 335.079,219.219 334.814,218.857 334.832 C 218.479 334.850,218.403 334.946,218.678 335.057 " stroke="none" fill="#786454" fill-rule="evenodd"></path></g></svg>